#N canvas 100 100 1280 700 10;
#X obj -639 257 cnv 15 100 60 empty empty empty 20 12 0 14 #696969 #e1e1e1 0;
#N canvas 0 0 450 250 (subpatch) 0;
#X array 0-cover 1 float 4;
#X coords 0 1 1 -1 907 102 1;
#X restore 149 24 graph;
#N canvas 0 0 450 250 (subpatch) 0;
#X array 1-cover 1 float 4;
#X coords 0 1 1 -1 907 102 1;
#X restore 149 141 graph;
#N canvas 0 0 450 250 (subpatch) 0;
#X array 1-sample 1.29416e+07 float 4;
#X coords 0 -1 1.29416e+07 1 907 101 1;
#X restore 149 141 graph;
#N canvas 0 0 450 250 (subpatch) 0;
#X array 0-sample 1.29416e+07 float 4;
#X coords 0 -1 1.29416e+07 1 907 102 1;
#X restore 149 24 graph;
#X text 40 60 Load Sample;
#X obj 1061 24 scope~ 200 100 64 3 32 -1 1 0 0 0 0 225 225 225 25 25 25 105 105 105 0 empty;
#X obj 1061 141 scope~ 200 100 64 3 32 -1 1 0 0 0 0 225 225 225 25 25 25 105 105 105 0 empty;
#X floatatom 181 569 10 0 0 2 Octave\ Up/Down - - 8;
#X obj -747 1806 tgl 25 0 empty empty empty 17 7 0 10 #191919 #e1e1e1 #e1e1e1 0 1;
#X obj 12 59 bng 25 250 50 0 empty empty empty 17 7 0 10 #191919 #e1e1e1 #e1e1e1;
#X obj -197 -145 openpanel;
#X obj -555 495 gran.player~;
#X msg -197 -121 load \$1;
#X obj -197 -94 sfload sample;
#X obj -819 1989 play~ 0-sample;
#X obj -700 1989 play~ 1-sample;
#X obj 152 258 hsl 901 19 0 1 0 1 empty empty Sample\ Start -2 -8 0 10 #191919 #e1e1e1 #e1e1e1 16905 1;
#X obj 152 296 hsl 901 20 0 1 0 1 empty empty Sample\ End -2 -8 0 10 #191919 #e1e1e1 #e1e1e1 90000 1;
#X obj -107 -21 s total_samples;
#X obj -925 1276 *;
#X obj -914 1240 r total_samples;
#X obj -107 -62 unpack f f;
#X obj -107 16 s sample_rate;
#X obj -914 1299 r sample_rate;
#X obj -925 1327 /;
#X obj -925 1383 * 1000;
#X obj -597 1283 *;
#X obj -586 1247 r total_samples;
#X obj -586 1306 r sample_rate;
#X obj -597 1334 /;
#X obj -597 1390 * 1000;
#X obj -826 1660 pack f f f;
#X obj -755 1383 hsl 128 17 0 1 0 0 empty empty empty -2 -8 0 10 #191919 #e1e1e1 #e1e1e1 0 1;
#X obj -767 1462 -;
#X obj -767 1558 *;
#X msg -826 1764 start \$1 \$2 \$3;
#X obj -672 1299 t b;
#X obj -797 1417 t b;
#X obj -788 1265 t b;
#X obj -767 1626 abs;
#X obj 21 585 keyboard 16 80 8 0 0 0 empty empty;
#X obj -572 1646 mtof;
#X obj -572 1685 expr 130.813 / $f1;
#X obj -572 1606 stripnote;
#X obj -638 1569 t b;
#X obj 21 544 keymap;
#X obj -358 1674 unpack f f;
#X obj -327 1738 sel 0;
#X msg -312 1797 stop;
#X obj -801 1199 r sample_start;
#X obj 149 328 s sample_start;
#X obj -672 1231 r sample_end;
#X obj 261 328 s sample_end;
#X obj 133 -35 array set 0-cover;
#X obj 389 -35 array size 0-cover;
#X obj 263 -35 array size 1-cover;
#X obj 12 -35 array set 1-cover;
#X msg 135 -75 1;
#X msg 12 -75 -1;
#X obj 147 2 cnv 15 97 20 empty empty empty 20 12 0 14 #232323 #e1e1e1 0;
#X obj 149 128 cnv 15 126 11 empty empty empty 20 12 0 14 #232323 #e1e1e1 0;
#X obj 495 823 pack f f f;
#X obj 495 866 route 1 2 3 4;
#X listbox 465 910 9 0 0 0 - - - 0;
#X listbox 523 910 9 0 0 0 - - - 0;
#X listbox 633 910 9 0 0 0 - - - 0;
#X listbox 699 910 9 0 0 0 - - - 0;
#X obj 67 -120 loadbang;
#X obj 47 42 s s_load_bang;
#X obj -196 -190 r s_load_bang;
#X obj -58 521 notein;
#X obj 12 141 messbox 136 24 25 25 25 225 225 225 0 12;
#X msg -266 -62 set Samples: \$1;
#X obj 12 167 messbox 136 24 25 25 25 225 225 225 0 12;
#X obj 12 193 messbox 136 24 25 25 25 225 225 225 0 12;
#X obj 12 219 messbox 136 24 25 25 25 225 225 225 0 12;
#X msg -266 -27 set Rate: \$2;
#X msg -264 8 set Channels: \$3;
#X msg -264 42 set Bits: \$4;
#X obj -819 2324 send~ output0;
#X obj -700 2324 send~ output1;
#X obj -264 369 receive~ output0;
#X obj -264 333 receive~ output1;
#X text 28 15 SR9001 Sampler;
#X obj 640 981 unpack f f;
#X obj 576 981 stripnote;
#X obj 582 770 text define active_notes;
#X obj 686 1019 moses 1;
#X obj 689 1089 pack f f;
#X obj 656 1203 text delete active_notes;
#X obj 656 1163 text search active_notes;
#X obj 610 1128 unpack f f;
#X obj 610 1089 pack f f;
#X obj 299 974 unpack f f;
#X obj 233 974 stripnote;
#X obj 345 1012 moses 1;
#X obj 348 1082 pack f f;
#X obj 315 1196 text delete active_notes;
#X obj 315 1156 text search active_notes;
#X obj 269 1121 unpack f f;
#X obj 269 1082 pack f f;
#X obj 348 1121 text insert active_notes;
#X obj 689 1128 text insert active_notes;
#X obj 750 1051 t b;
#X obj 750 1089 text size active_notes;
#X obj 409 1044 t b;
#X obj 409 1082 text size active_notes;
#X obj 115 1517 text get active_notes;
#X obj 97 1406 text size active_notes;
#X obj 97 1444 - 1;
#X obj 97 1342 t b;
#X obj 97 1474 sel -1;
#X obj 510 1196 t b;
#X obj 558 1196 t b;
#X floatatom 621 1277 5 0 0 0 - - - 12;
#X obj -544 671 crusher~;
#X obj -544 704 quantizer~;
#X msg -671 2125 interp \$1;
#X obj -736 2125 bng 25 250 50 0 empty empty empty 17 7 0 10 #dfdfdf #000000 #000000;
#X text -708 2123 sync;
#X obj -736 2072 tgl 25 0 empty empty empty 17 7 0 10 #191919 #e1e1e1 #e1e1e1 0 1;
#X obj -700 2178 downsample~;
#X msg -804 2125 interp \$1;
#X obj -819 2178 downsample~;
#X obj 76 424 hsl 128 17 0 1 0 1 empty empty empty -2 -8 0 10 #191919 #e1e1e1 #e1e1e1 3027 1;
#X obj 73 465 *;
#X obj 126 450 r sample_rate;
#X obj 73 502 s sample_rate_reduction;
#X obj -726 2038 r sample_rate_reduction;
#X floatatom 215 424 7 0 0 0 - - - 12;
#X text 69 398 Sample Rate Reduction;
#X text 274 423 Frequency in Hz;
#X obj 465 1531 expr ($f1 == 0) && ($f2 == 0);
#X obj 577 1072 t b;
#X obj 465 1615 sel 1;
#X floatatom 315 1238 5 0 0 0 - - - 12;
#X floatatom 777 1274 5 0 0 0 - - - 12;
#X obj 779 1335 sel 1;
#X obj 386 1342 sel 1;
#X obj -58 550 pack f f;
#X obj -392 -56 s sample_loaded;
#X obj 73 369 r sample_loaded;
#X obj -325 -83 t b;
#X obj -451 974 dac~;
#X obj 1196 585 dsponoff~;
#X obj 85 275 tgl 18 1 empty empty empty 17 7 0 10 #191919 #e1e1e1 #e1e1e1 0 1;
#X obj 12 297 hsl 130 19 0 1 0 1 empty empty empty -2 -8 0 10 #191919 #e1e1e1 #e1e1e1 12900 1;
#X obj -264 421 *~;
#X obj -213 421 *~;
#X text 9 274 Volume;
#X obj -99 333 *;
#X obj -99 205 loadbang;
#X obj -90 258 t b;
#X msg -170 181 0;
#X floatatom -151 299 5 0 0 0 - - - 12;
#X obj -48 333 t b;
#X obj -171 267 == 0;
#X text 107 274 Mute;
#X msg 14 465 10512;
#X obj 25 416 bng 25 250 50 0 empty empty empty 17 7 0 10 #191919 #e1e1e1 #e1e1e1;
#X text 1 390 10512 Hz;
#X floatatom 442 1453 5 0 0 0 - - - 12;
#X floatatom 572 1406 5 0 0 0 - - - 12;
#X obj 530 1453 t b;
#X obj -432 1062 mono;
#X listbox -430 1180 9 0 0 0 - - - 0;
#X obj -423 1122 pack f f;
#X obj -162 645 send~ to_scope0;
#X obj -151 615 send~ to_scope1;
#X obj 1061 -44 receive~ to_scope0;
#X obj 1177 -44 receive~ to_scope1;
#X obj 1377 374 hsl 128 17 0 1 0 1 empty empty empty -2 -8 0 10 #191919 #e1e1e1 #e1e1e1 2946 1;
#X obj 1374 415 *;
#X floatatom 1578 443 7 0 0 0 - - - 12;
#X obj 1427 400 r total_samples;
#X obj -49 465 /;
#X obj -84 412 r sample_rate;
#X obj 12 91 messbox 136 49 25 25 25 225 225 225 0 12;
#X msg -107 -131 set File: \$1;
#X obj 494 770 poly 3 0;
#X listbox -25 -287 117 0 0 0 - - - 12;
#X obj 36 -231 list length;
#X floatatom 36 -205 5 0 0 0 - - - 12;
#X obj 165 -217 list split;
#X listbox 165 -178 100 0 0 0 - - - 10;
#X obj 172 -251 t b;
#X msg 221 -242 1;
#X obj -20 -320 file splitname /;
#X floatatom -101 1199 5 0 0 0 - - - 12;
#X msg 192 369 1;
#X obj 215 357 loadbang;
#X obj 25 357 bng 25 250 50 0 empty empty empty 17 7 0 10 #191919 #e1e1e1 #e1e1e1;
#X text 11 332 Default;
#X obj -292 543 *~;
#X obj -238 543 *~;
#X obj -209 763 sig2float~;
#X floatatom -193 793 5 0 0 0 - - - 12;
#X obj -209 1121 adsr~ 1000 100 0.5 500;
#X text 1379 350 Zoom???;
#X obj 472 465 knob 50 0 5000 0 0 empty empty #191919 #696969 #E1E1E1 1 0 0 0 1 270 0 0 0 empty empty 0 12 6 -15 0 1 0 0;
#X obj 529 465 knob 50 0 5000 0 0 empty empty #191919 #696969 #E1E1E1 1 0 0 0 1 270 0 0 0 empty empty 0 12 6 -15 0 1 0 0;
#X obj 588 465 knob 50 0 1 0 0 empty empty #191919 #696969 #E1E1E1 1 0 0 0 1 270 0 0 0 empty empty 0 12 6 -15 0 1 0 0;
#X obj 650 465 knob 50 0 5000 0 0 empty empty #191919 #696969 #E1E1E1 1 0 0 0 1 270 0 0 0 empty empty 0 12 6 -15 0 1 0 0;
#X floatatom 472 521 5 0 0 0 - - - 12;
#X floatatom 529 521 5 0 0 0 - - - 12;
#X floatatom 588 521 5 0 0 0 - - - 12;
#X floatatom 650 521 5 0 0 0 - - - 12;
#X text 475 446 ADSR;
#X msg 588 423 1;
#X obj -555 534 pvoc.live~;
#X obj -555 456 stretch.shift~;
#X connect 9 0 15 0;
#X connect 9 0 16 0;
#X connect 10 0 69 0;
#X connect 11 0 13 0;
#X connect 11 0 188 0;
#X connect 13 0 14 0;
#X connect 14 0 73 0;
#X connect 14 0 77 0;
#X connect 14 0 78 0;
#X connect 14 0 79 0;
#X connect 14 0 22 0;
#X connect 14 0 143 0;
#X connect 15 0 124 0;
#X connect 16 0 122 0;
#X connect 17 0 51 0;
#X connect 18 0 53 0;
#X connect 20 0 25 0;
#X connect 21 0 20 1;
#X connect 22 0 19 0;
#X connect 22 1 23 0;
#X connect 24 0 25 1;
#X connect 25 0 26 0;
#X connect 26 0 34 1;
#X connect 26 0 32 0;
#X connect 27 0 30 0;
#X connect 28 0 27 1;
#X connect 29 0 30 1;
#X connect 30 0 31 0;
#X connect 31 0 34 0;
#X connect 31 0 32 1;
#X connect 32 0 36 0;
#X connect 33 0 35 1;
#X connect 33 0 38 0;
#X connect 34 0 35 0;
#X connect 35 0 40 0;
#X connect 36 0 15 0;
#X connect 36 0 16 0;
#X connect 37 0 32 0;
#X connect 38 0 34 0;
#X connect 38 0 32 0;
#X connect 39 0 34 0;
#X connect 40 0 32 2;
#X connect 41 0 165 0;
#X connect 41 0 180 0;
#X connect 42 0 43 0;
#X connect 43 0 35 1;
#X connect 44 0 42 0;
#X connect 44 0 45 0;
#X connect 45 0 34 0;
#X connect 45 0 20 0;
#X connect 45 0 27 0;
#X connect 46 0 41 0;
#X connect 46 1 8 0;
#X connect 47 1 48 0;
#X connect 49 0 15 0;
#X connect 49 0 16 0;
#X connect 50 0 39 0;
#X connect 50 0 20 0;
#X connect 52 0 27 0;
#X connect 52 0 37 0;
#X connect 58 0 54 0;
#X connect 58 0 55 0;
#X connect 58 0 56 0;
#X connect 59 0 57 0;
#X connect 62 0 63 0;
#X connect 63 0 64 0;
#X connect 63 1 65 0;
#X connect 63 2 66 0;
#X connect 63 3 67 0;
#X connect 64 0 95 0;
#X connect 64 0 94 0;
#X connect 65 0 85 0;
#X connect 65 0 86 0;
#X connect 68 0 58 0;
#X connect 68 0 59 0;
#X connect 70 0 11 0;
#X connect 71 0 140 0;
#X connect 71 1 140 1;
#X connect 73 0 72 0;
#X connect 77 0 74 0;
#X connect 78 0 75 0;
#X connect 79 0 76 0;
#X connect 82 0 148 0;
#X connect 83 0 149 0;
#X connect 85 0 93 1;
#X connect 85 1 88 0;
#X connect 85 1 134 0;
#X connect 85 1 163 0;
#X connect 86 0 89 0;
#X connect 88 0 93 0;
#X connect 88 1 89 1;
#X connect 88 1 104 0;
#X connect 89 0 103 0;
#X connect 89 0 111 0;
#X connect 91 0 90 0;
#X connect 91 0 137 0;
#X connect 91 0 114 0;
#X connect 92 1 91 0;
#X connect 92 1 115 0;
#X connect 93 0 92 0;
#X connect 94 0 101 1;
#X connect 94 1 96 0;
#X connect 94 1 162 0;
#X connect 95 0 97 0;
#X connect 96 0 101 0;
#X connect 96 1 97 1;
#X connect 96 1 106 0;
#X connect 97 0 102 0;
#X connect 97 0 111 0;
#X connect 99 0 98 0;
#X connect 99 0 136 0;
#X connect 99 0 113 0;
#X connect 100 1 99 0;
#X connect 101 0 100 0;
#X connect 104 0 105 0;
#X connect 105 0 103 1;
#X connect 106 0 107 0;
#X connect 107 0 102 1;
#X connect 109 0 110 0;
#X connect 110 0 112 0;
#X connect 111 0 109 0;
#X connect 112 1 108 0;
#X connect 118 0 122 0;
#X connect 119 0 122 0;
#X connect 119 0 124 0;
#X connect 121 0 123 0;
#X connect 121 0 118 0;
#X connect 122 0 81 0;
#X connect 123 0 124 0;
#X connect 124 0 80 0;
#X connect 125 0 126 0;
#X connect 126 0 128 0;
#X connect 126 0 130 0;
#X connect 127 0 126 1;
#X connect 129 0 122 1;
#X connect 129 0 124 1;
#X connect 133 0 135 0;
#X connect 134 0 162 0;
#X connect 136 0 139 0;
#X connect 137 0 138 0;
#X connect 138 0 109 0;
#X connect 139 0 109 0;
#X connect 140 0 41 0;
#X connect 142 0 125 0;
#X connect 143 0 141 0;
#X connect 146 0 157 0;
#X connect 146 0 153 0;
#X connect 147 0 151 0;
#X connect 147 0 156 0;
#X connect 148 0 194 0;
#X connect 148 0 168 0;
#X connect 149 0 195 0;
#X connect 149 0 169 0;
#X connect 151 0 149 1;
#X connect 151 0 148 1;
#X connect 152 0 147 0;
#X connect 152 0 154 0;
#X connect 153 0 151 0;
#X connect 153 0 147 0;
#X connect 153 0 155 0;
#X connect 154 0 146 0;
#X connect 155 0 151 1;
#X connect 156 0 155 0;
#X connect 157 0 155 0;
#X connect 159 0 128 0;
#X connect 159 0 176 0;
#X connect 160 0 159 0;
#X connect 162 0 133 0;
#X connect 163 0 133 1;
#X connect 163 0 164 0;
#X connect 164 0 133 0;
#X connect 165 0 167 0;
#X connect 165 1 167 1;
#X connect 165 1 198 0;
#X connect 166 0 44 0;
#X connect 166 0 47 0;
#X connect 167 0 166 0;
#X connect 170 0 6 0;
#X connect 171 0 7 0;
#X connect 172 0 173 0;
#X connect 173 0 174 0;
#X connect 175 0 173 1;
#X connect 176 0 125 0;
#X connect 177 0 176 1;
#X connect 179 0 178 0;
#X connect 180 0 62 0;
#X connect 180 1 62 1;
#X connect 180 2 62 2;
#X connect 181 0 182 0;
#X connect 181 0 184 0;
#X connect 181 0 186 0;
#X connect 182 0 183 0;
#X connect 184 1 185 0;
#X connect 185 0 179 0;
#X connect 186 0 187 0;
#X connect 187 0 184 1;
#X connect 188 0 181 0;
#X connect 189 0 49 0;
#X connect 190 0 125 0;
#X connect 191 0 190 0;
#X connect 191 0 209 0;
#X connect 192 0 190 0;
#X connect 194 0 144 0;
#X connect 195 0 144 1;
#X connect 196 0 197 0;
#X connect 198 0 196 0;
#X connect 198 0 195 1;
#X connect 198 0 194 1;
#X connect 198 1 189 0;
#X connect 200 0 204 0;
#X connect 201 0 205 0;
#X connect 202 0 206 0;
#X connect 203 0 207 0;
#X connect 204 0 198 2;
#X connect 205 0 198 3;
#X connect 206 0 198 4;
#X connect 207 0 198 5;
#X connect 209 0 202 0;
