#N canvas 100 100 1280 600 10;
#X obj 149 49 openpanel;
#X obj 174 99 soundfiler;
#N canvas 0 0 450 250 (subpatch) 0;
#X array left_channel 1.16018e+06 float 4;
#X coords 0 1 1.16018e+06 -1 502 102 1;
#X restore 149 24 graph;
#N canvas 0 0 450 250 (subpatch) 0;
#X array right_channel 1.16018e+06 float 4;
#X coords 0 1 1.16018e+06 -1 502 102 1;
#X restore 149 149 graph;
#X obj 24 49 bng 25 250 50 0 empty empty empty 17 7 0 10 #191919 #e1e1e1 #e1e1e1;
#X obj 24 124 out~;
#X obj 252 574 hsl 128 17 0 1 0 0 empty empty Sample\ Playback\ Position -2 -8 0 10 #191919 #e1e1e1 #e1e1e1 0 1;
#X text 49 48 Load Sample;
#X listbox 24 99 20 0 0 0 - - - 0;
#X obj 449 599 sig2float~;
#X obj 797 488 vline~;
#X obj 849 24 note.in;
#X obj 783 73 stripnote;
#X obj 892 103 sel 0;
#X obj 861 73 unpack f f;
#X msg 910 139 0;
#X obj 928 317 pack f f f;
#X obj 727 179 expr 44100 / $f1;
#X obj 759 218 expr 1 / $f1;
#X obj 745 263 *;
#X obj 1177 549 hsl 128 17 0 1 0 0 empty empty playback\ speed -2 -8 0 10 #191919 #e1e1e1 #e1e1e1 0 1;
#X obj 624 499 +~;
#X obj 965 79 hsl 128 17 0 1 0 1 empty empty start -2 -8 0 10 #191919 #e1e1e1 #e1e1e1 3920 1;
#X floatatom 1064 364 15 0 0 0 - - - 12;
#X obj 1118 79 hsl 128 17 0 1 0 1 empty empty end -2 -8 0 10 #191919 #e1e1e1 #e1e1e1 12700 1;
#X obj 1047 178 -;
#X obj 1064 317 / 44100;
#X listbox 930 364 15 0 0 0 - - - 10;
#X floatatom 1197 272 7 0 0 0 - - - 16;
#X floatatom 1049 207 5 0 0 0 - - - 0;
#X floatatom 1115 111 5 0 0 0 - - - 0;
#X obj 1143 230 *;
#X obj 1074 24 t b;
#X obj 783 111 t b;
#X floatatom 962 111 5 0 0 0 - - - 0;
#X obj 1018 139 t b f;
#X obj 1074 139 t b f;
#X obj 1161 111 t b;
#X msg 928 411 \$2 \$3;
#X obj 1011 503 *;
#X obj 24 424 keyboard 16 80 4 2 0 0 empty empty;
#X obj 1224 299 note.in;
#X obj 1267 335 stripnote;
#X obj 1267 370 mtof;
#X obj 1261 468 *;
#X obj 1064 411 expr $f1 * 1000;
#X obj 524 524 /;
#X obj 424 549 44100;
#X obj 1267 411 expr 130.813 / $f1;
#X text 24 23 SR91 Sampler;
#X msg 24 74 read -resize \$1 left_channel right_channel;
#X obj -1 174 tabread4~ left_channel;
#X obj -1 199 tabread4~ right_channel;
#X obj 1161 139 array size left_channel;
#X obj 727 150 array size left_channel;
#X obj 1011 472 array size left_channel;
#X obj 699 24 keymap;
#X obj 674 -51 key;
#X obj 799 -51 keyup;
#X obj 1338 259 key;
#X obj 1418 268 keyup;
#X obj 1363 304 keymap;
#X connect 0 0 50 0;
#X connect 1 1 8 0;
#X connect 4 0 0 0;
#X connect 9 0 46 0;
#X connect 9 0 47 0;
#X connect 10 0 21 0;
#X connect 11 0 12 0;
#X connect 11 0 14 0;
#X connect 12 0 33 0;
#X connect 12 0 32 0;
#X connect 13 0 15 0;
#X connect 14 1 13 0;
#X connect 15 0 10 0;
#X connect 16 0 27 0;
#X connect 17 0 19 0;
#X connect 18 0 19 1;
#X connect 21 0 9 0;
#X connect 21 0 51 0;
#X connect 21 0 52 0;
#X connect 22 0 34 0;
#X connect 22 0 37 0;
#X connect 23 0 45 0;
#X connect 24 0 30 0;
#X connect 24 0 37 0;
#X connect 25 0 29 0;
#X connect 25 0 18 0;
#X connect 26 0 23 0;
#X connect 27 0 38 0;
#X connect 28 0 26 0;
#X connect 29 0 31 0;
#X connect 30 0 36 0;
#X connect 31 0 28 0;
#X connect 31 0 16 1;
#X connect 32 0 22 0;
#X connect 32 0 24 0;
#X connect 32 0 16 0;
#X connect 32 0 55 0;
#X connect 33 0 54 0;
#X connect 34 0 35 0;
#X connect 35 0 25 0;
#X connect 35 1 25 1;
#X connect 35 1 39 1;
#X connect 36 0 25 0;
#X connect 36 1 25 0;
#X connect 37 0 53 0;
#X connect 38 0 10 0;
#X connect 39 0 21 1;
#X connect 40 0 12 0;
#X connect 41 0 42 0;
#X connect 42 0 43 0;
#X connect 43 0 48 0;
#X connect 44 0 16 2;
#X connect 45 0 44 1;
#X connect 46 0 6 0;
#X connect 47 0 46 1;
#X connect 48 0 44 0;
#X connect 50 0 1 0;
#X connect 51 0 5 0;
#X connect 52 0 5 1;
#X connect 53 0 31 1;
#X connect 54 0 17 0;
#X connect 55 0 39 0;
#X connect 56 0 14 0;
#X connect 56 0 12 0;
#X connect 56 1 12 0;
#X connect 57 0 56 0;
#X connect 58 0 56 0;
#X connect 59 0 61 0;
#X connect 60 0 61 0;
#X connect 61 0 42 0;
