#N canvas 46 224 902 588 10;
#X obj 66 885 hip~ 10;
#X floatatom -1 199 16 0 100 0 - - - 8;
#X obj 571 165 openpanel;
#X obj 575 128 bng 15 250 50 0 empty empty empty 17 7 0 10 #fcfcfc #000000 #000000;
#X text 90 197 pos (percent);
#X text 8 85 2015 martin brinkmann;
#X text 6 6 a small and simple implementation of paul nascas extrem timestretching algorithm (aka 'paulstretch') it is somewhat like a phase-vocoder \, without the phase though... windowsize from 1024 to 131072 with my cpu and latency settings pd can handle 32768 without any dropouts.;
#X text 604 127 open file;
#X obj 193 938 out~;
#X obj 324 124 loadbang;
#X obj 604 573 / 100;
#X obj 604 529 - 8192;
#X obj 193 746 *;
#X msg 807 445 16384;
#X msg 760 445 8192;
#X obj 193 820 abs_small_paul;
#X msg 714 445 4096;
#X msg 861 445 32768;
#X msg 664 445 2048;
#X msg 620 445 1024;
#X msg 917 445 65536;
#X obj 760 345 hradio 13 1 1 8 empty empty window\ size 0 -8 0 10 #fcfcfc #000000 #e0e0e0 6;
#X obj 255 264 nbx 5 14 1 256 0 1 empty empty Multiplier 0 -7 0 10 #fcfcfc #000000 #e1e1e1 16 256;
#X obj 165 249 bng 29 250 50 0 empty empty empty 17 7 0 10 #00fc04 #000000 #000000;
#X obj 115 249 bng 29 250 50 0 empty empty empty 17 7 0 10 #dcdcdc #000000 #000000;
#X obj 125 673 clip 0 100;
#X floatatom 326 264 8 0 100 0 - - - 0;
#X obj 262 348 *;
#X obj 528 312 / 44.1;
#X obj 324 231 change;
#X obj 324 163 metro 100;
#X obj 324 195 f;
#X obj 807 501 f;
#X obj 397 780 nbx 5 14 -36 36 0 1 empty empty transpose -53 7 0 10 #fcfcfc #000000 #e1e1e1 0 256;
#N canvas 1 77 450 300 btoggle 0;
#X obj 122 29 inlet;
#X obj 104 213 outlet;
#X obj 163 213 outlet;
#X obj 130 104 int;
#X obj 91 151 + 1;
#X obj 152 144 mod 2;
#X obj 123 56 t b;
#X obj 129 185 select 0 1;
#X msg 179 54 0;
#X obj 238 22 inlet;
#X connect 0 0 6 0;
#X connect 3 0 4 0;
#X connect 3 0 7 0;
#X connect 4 0 5 0;
#X connect 5 0 3 1;
#X connect 6 0 3 0;
#X connect 7 0 1 0;
#X connect 7 1 2 0;
#X connect 8 0 3 1;
#X connect 9 0 8 0;
#X restore 115 306 pd btoggle;
#X msg 195 529 \$1 \$2;
#X text 376 552 play;
#X text 213 552 continue;
#X obj 324 312 / 100;
#X obj 205 451 *;
#X obj 324 415 -;
#X obj 324 342 t b f;
#X msg 312 373 1;
#X obj 193 640 line;
#X msg 125 530 set \$1;
#X obj 125 507 f;
#X obj 195 507 pack f f;
#X msg 158 334 100;
#X obj 251 299 t b f;
#X obj 471 286 tgl 24 1 empty empty pnd 17 7 0 10 #fcfcfc #000000 #000000 0 1;
#X obj 168 415 *;
#X obj 457 348 == 0;
#X obj 751 396 select 0 1 2 3 4 5 6 7;
#X msg 970 445 131072;
#X obj 391 373 select 0 100;
#X obj 297 540 f;
#X msg 258 445 100;
#X obj 195 336 t b b;
#X obj 391 306 change;
#X obj 391 429 t b b;
#X msg 391 476 0;
#X msg 297 584 \$3 \, \$1 \$2;
#X obj 296 563 pack f f f;
#X msg 427 478 100;
#X msg 338 519 0;
#X obj 391 348 spigot;
#X obj 811 556 nbx 5 13 0 131072 0 0 empty empty empty -7 7 0 10 #fcfcfc #000000 #000000 0 256;
#N canvas 0 0 450 250 (subpatch) 0;
#X array 0-eee 9.49253e+06 float 2;
#X coords 0 1 9.49253e+06 -1 298 76 1;
#X restore 825 122 graph;
#X msg 571 215 load \$1;
#X obj 571 254 sfload eee;
#N canvas 0 0 450 250 (subpatch) 0;
#X array 1-eee 9.49253e+06 float 2;
#X coords 0 1 9.49253e+06 -1 300 78 1;
#X restore 823 218 graph;
#X text 54 224 pause/continue;
#X text 165 224 play (from beginning);
#X obj 571 286 unpack f f;
#X listbox 668 275 28 0 0 0 - - - 8;
#X obj 193 874 *~ 2;
#X obj 230 874 *~ 2;
#X connect 1 0 45 0;
#X connect 1 0 25 0;
#X connect 2 0 68 0;
#X connect 3 0 2 0;
#X connect 9 0 30 0;
#X connect 10 0 12 1;
#X connect 11 0 10 0;
#X connect 12 0 15 0;
#X connect 13 0 32 0;
#X connect 14 0 32 0;
#X connect 15 0 75 0;
#X connect 15 1 76 0;
#X connect 16 0 32 0;
#X connect 17 0 32 0;
#X connect 18 0 32 0;
#X connect 19 0 32 0;
#X connect 20 0 32 0;
#X connect 21 0 52 0;
#X connect 22 0 48 0;
#X connect 23 0 34 1;
#X connect 23 0 57 0;
#X connect 24 0 34 0;
#X connect 25 0 12 0;
#X connect 25 0 31 1;
#X connect 26 0 38 0;
#X connect 26 0 58 0;
#X connect 26 0 45 1;
#X connect 27 0 62 1;
#X connect 27 0 39 1;
#X connect 28 0 27 1;
#X connect 29 0 26 0;
#X connect 30 0 31 0;
#X connect 31 0 29 0;
#X connect 32 0 15 1;
#X connect 32 0 11 1;
#X connect 32 0 66 0;
#X connect 33 0 15 2;
#X connect 34 0 45 0;
#X connect 34 1 47 0;
#X connect 35 0 43 0;
#X connect 38 0 41 0;
#X connect 39 0 46 1;
#X connect 40 0 39 0;
#X connect 41 0 42 0;
#X connect 41 1 40 1;
#X connect 42 0 40 0;
#X connect 43 0 12 0;
#X connect 43 0 25 0;
#X connect 44 0 43 0;
#X connect 45 0 44 0;
#X connect 46 0 35 0;
#X connect 47 0 50 0;
#X connect 48 0 39 0;
#X connect 48 1 27 0;
#X connect 49 0 51 0;
#X connect 49 0 65 1;
#X connect 50 0 46 0;
#X connect 51 0 50 1;
#X connect 52 0 19 0;
#X connect 52 1 18 0;
#X connect 52 2 16 0;
#X connect 52 3 14 0;
#X connect 52 4 13 0;
#X connect 52 5 17 0;
#X connect 52 6 20 0;
#X connect 52 7 53 0;
#X connect 53 0 32 0;
#X connect 54 0 23 0;
#X connect 54 1 59 0;
#X connect 55 0 62 0;
#X connect 56 0 55 1;
#X connect 57 0 55 0;
#X connect 57 1 64 0;
#X connect 57 1 56 0;
#X connect 58 0 65 0;
#X connect 59 0 55 0;
#X connect 59 1 63 0;
#X connect 59 1 60 0;
#X connect 60 0 55 1;
#X connect 61 0 43 0;
#X connect 62 0 61 0;
#X connect 63 0 62 2;
#X connect 64 0 62 2;
#X connect 65 0 54 0;
#X connect 68 0 69 0;
#X connect 69 0 73 0;
#X connect 69 0 74 0;
#X connect 73 0 11 0;
#X connect 73 0 28 0;
#X connect 75 0 8 0;
#X connect 76 0 8 1;
