#N canvas 0 50 450 300 10;
#X listbox 68 309 9 0 0 0 - - - 0;
#X listbox 118 311 9 0 0 0 - - - 0;
#X listbox 172 311 9 0 0 0 - - - 0;
#X listbox 232 314 9 0 0 0 - - - 0;
#X obj 52 389 voice;
#X obj 121 397 voice;
#X obj 185 398 voice;
#X obj 255 391 voice;
#X obj 111 213 pack f f f;
#X obj 113 45 inlet;
#X obj 244 51 inlet;
#X obj 90 654 outlet~;
#X obj 307 658 outlet~;
#X obj 98 250 route 1 2 3 4;
#X obj 384 261 route 5 6 7 8;
#X obj 327 357 voice;
#X obj 391 356 voice;
#X obj 455 357 voice;
#X obj 512 358 voice;
#X listbox 345 307 9 0 0 0 - - - 0;
#X listbox 395 309 9 0 0 0 - - - 0;
#X listbox 449 309 9 0 0 0 - - - 0;
#X listbox 509 312 9 0 0 0 - - - 0;
#X obj 642 276 route 9 10;
#X listbox 639 310 9 0 0 0 - - - 0;
#X listbox 699 313 9 0 0 0 - - - 0;
#X obj 632 351 voice;
#X obj 689 352 voice;
#X obj 113 144 poly 10 0, f 10;
#X connect 0 0 4 0;
#X connect 1 0 5 0;
#X connect 2 0 6 0;
#X connect 3 0 7 0;
#X connect 4 0 11 0;
#X connect 4 1 12 0;
#X connect 5 0 11 0;
#X connect 5 1 12 0;
#X connect 6 0 11 0;
#X connect 6 1 12 0;
#X connect 7 0 11 0;
#X connect 7 1 12 0;
#X connect 8 0 13 0;
#X connect 8 0 14 0;
#X connect 8 0 23 0;
#X connect 9 0 28 0;
#X connect 10 0 4 1;
#X connect 10 0 5 1;
#X connect 10 0 6 1;
#X connect 10 0 7 1;
#X connect 10 0 15 1;
#X connect 10 0 16 1;
#X connect 10 0 17 1;
#X connect 10 0 18 1;
#X connect 10 0 26 1;
#X connect 10 0 27 1;
#X connect 13 0 0 0;
#X connect 13 1 1 0;
#X connect 13 2 2 0;
#X connect 13 3 3 0;
#X connect 14 0 19 0;
#X connect 14 1 20 0;
#X connect 14 2 21 0;
#X connect 14 3 22 0;
#X connect 15 0 11 0;
#X connect 15 1 12 0;
#X connect 16 0 11 0;
#X connect 16 1 12 0;
#X connect 17 0 11 0;
#X connect 17 1 12 0;
#X connect 18 0 11 0;
#X connect 18 1 12 0;
#X connect 19 0 15 0;
#X connect 20 0 16 0;
#X connect 21 0 17 0;
#X connect 22 0 18 0;
#X connect 23 0 24 0;
#X connect 23 1 25 0;
#X connect 24 0 26 0;
#X connect 25 0 27 0;
#X connect 26 0 11 0;
#X connect 26 1 12 0;
#X connect 27 0 11 0;
#X connect 27 1 12 0;
#X connect 28 0 8 0;
#X connect 28 1 8 1;
#X connect 28 2 8 2;
