#N canvas 100 100 1280 720 10;
#X obj 10 53 cnv 15 139 190 empty empty empty 20 12 0 14 #696969 #e1e1e1 0;
#X obj 11 4 cnv 15 138 44 empty empty empty 20 12 0 14 #696969 #e1e1e1 0;
#X obj 681 551 cnv 15 100 74 empty empty empty 20 12 0 14 #696969 #e1e1e1 0;
#X obj 406 551 cnv 15 269 74 empty empty empty 20 12 0 14 #696969 #e1e1e1 0;
#N canvas 0 0 450 250 (subpatch) 0;
#X array 0-sample 9.49253e+06 float 2;
#X coords 0 -1 9.49253e+06 1 1116 102 1;
#X restore 152 21 graph;
#N canvas 0 0 450 250 (subpatch) 0;
#X array 1-sample 9.49253e+06 float 2;
#X coords 0 -1 9.49253e+06 1 1116 101 1;
#X restore 152 141 graph;
#X obj 944 652 cnv 15 326 56 empty empty empty 20 12 0 14 #696969 #e1e1e1 0;
#X obj 1060 318 cnv 15 207 93 empty empty empty 20 12 0 14 #696969 #e1e1e1 0;
#X obj 13 454 cnv 15 225 92 empty empty empty 20 12 0 14 #696969 #e1e1e1 0;
#X obj 13 551 cnv 15 387 74 empty empty empty 20 12 0 14 #696969 #e1e1e1 0;
#X obj 244 454 cnv 15 262 92 empty empty empty 20 12 0 14 #696969 #e1e1e1 0;
#X text 40 60 Load Sample;
#X obj 944 551 scope~ 156 96 64 3 32 -1 1 0 0 0 0 225 225 225 25 25 25 105 105 105 0 empty;
#X obj 1114 551 scope~ 156 96 64 3 32 -1 1 0 0 0 0 225 225 225 25 25 25 105 105 105 0 empty;
#X floatatom 21 606 10 0 0 2 Transpose - - 10;
#X obj 12 59 bng 25 250 50 0 empty empty empty 17 7 0 10 #191919 #e1e1e1 #e1e1e1;
#X obj -290 -371 openpanel;
#X msg -290 -347 load \$1;
#X obj -290 -320 sfload sample;
#X obj 155 245 hsl 1110 30 0 1 0 0 empty empty Sample\ Start -63 14 0 10 #191919 #e1e1e1 #e1e1e1 0 1;
#X obj 155 278 hsl 1110 30 0 1 0 0 empty empty Sample\ End -58 14 0 10 #191919 #e1e1e1 #e1e1e1 0 1;
#X obj -555 -147 s total_samples;
#X obj -555 -188 unpack f f;
#X obj -555 -110 s sample_rate;
#X obj 12 629 keyboard 16 80 8 0 0 0 empty empty;
#X obj -365 275 s sample_start;
#X obj -365 312 s sample_end;
#X obj 513 -119 loadbang;
#X obj -104 91 s s_load_bang;
#X obj -289 -416 r s_load_bang;
#X obj -431 639 notein;
#X obj 12 141 messbox 136 24 25 25 25 225 225 225 0 12;
#X msg -419 91 set Samples: \$1;
#X obj 12 167 messbox 136 24 25 25 25 225 225 225 0 12;
#X obj 12 193 messbox 136 24 25 25 25 225 225 225 0 12;
#X obj 12 219 messbox 136 24 25 25 25 225 225 225 0 12;
#X msg -419 126 set Rate: \$2;
#X msg -417 161 set Channels: \$3;
#X msg -417 195 set Bits: \$4;
#X obj 49 1368 send~ output0;
#X obj 182 1359 send~ output1;
#X obj 978 814 receive~ output0;
#X obj 1178 814 receive~ output1;
#X text 28 15 SR9001 Sampler;
#X obj 25 471 hsl 128 17 0 1 0 0 empty empty Sample\ Rate\ Adjust -2 -8 0 10 #191919 #e1e1e1 #e1e1e1 0 1;
#X obj -168 517 *;
#X obj 66 487 r sample_rate;
#X obj -175 574 s sample_rate_reduction;
#X floatatom 164 471 7 0 0 1 Hz - - 10;
#X obj -431 668 pack f f;
#X obj -534 132 s sample_loaded;
#X obj -534 91 t b;
#X obj 1108 1224 dac~;
#X obj 1202 690 tgl 18 0 empty empty Mute -27 8 0 10 #191919 #e1e1e1 #e1e1e1 0 1;
#X obj 1093 671 hsl 128 17 0 2 0 0 empty empty Volume -2 -8 0 10 #191919 #e1e1e1 #e1e1e1 0 1;
#X obj 1091 855 *~;
#X obj 1142 855 *~;
#X obj 776 723 loadbang;
#X obj 1170 767 t b;
#X msg 906 762 0;
#X msg -115 524 10512;
#X obj 195 509 bng 25 250 50 0 empty empty 10512\ Hz -9 -7 0 10 #191919 #e1e1e1 #e1e1e1;
#X obj 984 1224 send~ to_scope0;
#X obj 1161 1223 send~ to_scope1;
#X obj 1484 656 receive~ to_scope0;
#X obj 1476 681 receive~ to_scope1;
#X obj 1461 570 hsl 128 17 0 1 0 0 empty empty empty -2 -8 0 10 #191919 #e1e1e1 #e1e1e1 0 1;
#X obj 1458 611 *;
#X floatatom 1662 639 7 0 0 0 - - - 12;
#X obj 1511 596 r total_samples;
#X obj -115 548 /;
#X obj 12 91 messbox 136 49 25 25 25 225 225 225 0 10;
#X msg -271 -18 set File: \$1;
#X obj -255 -122 list length;
#X obj -286 -57 list split;
#X obj -266 -199 file splitname /;
#X msg -52 524 1;
#X obj -352 336 loadbang;
#X obj 136 509 bng 25 250 50 0 empty empty Default\ Rate -15 -7 0 10 #191919 #e1e1e1 #e1e1e1;
#X text 1463 546 Zoom???;
#X obj 265 472 knob 50 0 5000 0 0 empty empty #191919 #696969 #E1E1E1 1 0 0 0 1 270 0 0 0 empty empty 0 12 6 -15 0 1 0 0;
#X obj 322 472 knob 50 0 5000 0 0 empty empty #191919 #696969 #E1E1E1 1 0 0 0 1 270 0 0 0 empty empty 0 12 6 -15 0 1 0 0;
#X obj 381 472 knob 50 0 1 0 0 empty empty #191919 #696969 #E1E1E1 1 0 0 0 1 270 0 0 0 empty empty 0 12 6 -15 0 1 0 0;
#X obj 443 472 knob 50 0 5000 0 0 empty empty #191919 #696969 #E1E1E1 1 0 0 0 1 270 0 0 0 empty empty 0 12 6 -15 0 1 0 0;
#X floatatom 265 528 5 0 0 0 - - - 12;
#X floatatom 322 528 5 0 0 0 - - - 12;
#X floatatom 381 528 5 0 0 0 - - - 12;
#X floatatom 443 528 5 0 0 0 - - - 12;
#X msg -525 388 1;
#X listbox 86 606 9 0 0 0 - - - 10;
#X obj 265 554 s a;
#X obj 322 554 s d;
#X obj 374 554 s s;
#X obj 482 522 s r;
#X obj 21 719 s midi_input;
#X obj 603 858 hsl 132 12 0 1 0 0 empty empty Playback\ Position -88 9 0 10 #191919 #e1e1e1 #e1e1e1 0 1;
#X obj 595 820 r playback_pos, f 16;
#X obj 1062 358 hradio 20 1 0 10 empty empty Slices 0 -8 0 10 #191919 #e1e1e1 #e1e1e1 0;
#X floatatom 1066 384 5 0 0 0 - - - 12;
#X obj 1359 181 text define slices;
#X obj 959 402 r sample_start;
#X obj 959 428 r sample_end;
#X obj 959 468 pack f f;
#X obj 1091 496 text set slices;
#X obj 1175 432 text get slices;
#X obj 1223 480 unpack;
#X obj 144 606 tgl 16 1 empty empty Enable/Disable\ Keyboard 21 9 0 10 #191919 #e1e1e1 #e1e1e1 1 1;
#X msg 1318 322 create;
#X obj 1365 355 param sample_select;
#X obj 1301 497 text set slices;
#X msg 1287 450 0 1, f 5;
#X obj 1300 383 until;
#X obj 1342 424 float 0;
#X obj 1353 464 + 1;
#X obj 1420 438 sel 8;
#X msg 1421 464 0;
#X obj 1237 330 bng 25 250 50 0 empty empty empty 17 7 0 10 #191919 #e1e1e1 #e1e1e1;
#X text 1152 329 Reset Slices;
#X obj -370 639 customkeymap;
#X obj -370 679 spigot;
#X obj 22 491 tgl 25 0 empty empty Interpolate\ (1x) 27 11 0 10 #191919 #e1e1e1 #e1e1e1 0 1;
#X obj 513 -35 s pd;
#X msg -583 388 0;
#X obj 1201 518 s slice_start;
#X obj 1294 525 s slice_end;
#X obj -100 231 r slice_start;
#X obj -97 259 r slice_end;
#X obj -251 574 s s_interp;
#X floatatom 21 573 9 0 0 2 Pitch\ Offset - - 10;
#X obj -232 737 s pitch_offset;
#X text 1833 1350 Add looping functionality, f 40;
#X text 1831 1401 Add granular sampler grain.sampler~;
#X text 1848 1452 Add crusher~ and/or quantizer~;
#X msg 1280 641 \; pd dsp \$1;
#X obj 1236 684 tgl 18 0 empty empty empty 17 7 0 10 #191919 #e1e1e1 #e1e1e1 0 1;
#X obj 1224 657 cnv 25 40 23 empty empty DSP 3 13 0 20 #d1d1d1 #7c7c7c 0;
#X obj 1290 591 loadbang;
#X msg 1290 617 1;
#X obj -266 -166 t l l;
#X obj -255 -90 - 1;
#X listbox -266 44 35 0 0 0 - - - 8;
#X obj 1078 1111 hip~ 5;
#X obj 1166 1116 hip~ 5;
#X obj 1091 790 float;
#X obj 1179 732 == 0;
#X obj 1129 730 sel 0;
#X msg 1114 761 0;
#X msg -463 391 45;
#X msg -638 388 1;
#X obj -359 229 r sample_loaded;
#X obj -175 474 t b;
#X obj 161 1166 downsample~;
#X obj 42 1166 downsample~;
#X obj 135 1026 r sample_rate_reduction;
#X msg 209 1092 interp \$1;
#X msg 76 1092 interp \$1;
#X obj -19 1052 r s_interp;
#X obj 232 1259 quantizer~;
#X obj 304 1195 hsl 128 17 0 0.1 0 0 empty empty empty -2 -8 0 10 #191919 #e1e1e1 #e1e1e1 0 1;
#X obj 87 1262 quantizer~;
#X floatatom 332 1234 5 0 0 0 - - - 12;
#X obj 289 597 tgl 25 0 empty empty Retrig/Legato -21 -8 0 10 #191919 #e1e1e1 #e1e1e1 0 1;
#X obj 953 671 hsl 128 17 0 1 0 0 empty empty Panning -2 -8 0 10 #191919 #e1e1e1 #e1e1e1 0 1;
#X floatatom 952 787 5 0 0 0 - - - 12;
#X floatatom 1036 758 5 0 0 0 - - - 12;
#X obj 952 754 expr 1 - $f1;
#X msg 677 766 0.5;
#X obj 1084 922 *~;
#X obj 1172 930 *~;
#X msg -609 318 1;
#X msg 1287 346 11;
#X msg 1387 325 range 0 10;
#X msg 1118 330 0;
#X msg -371 388 0;
#X obj 83 922 voice;
#X obj 173 922 polyphonic;
#X msg 795 762 1;
#X text 1837 1557 playback indicator array;
#X text 1842 1608 sf2 loading;
#X text 1838 1657 mono waveform loading;
#X obj 342 597 tgl 25 0 empty empty Mono/Poly -7 -8 0 10 #191919 #e1e1e1 #e1e1e1 0 1;
#X obj 83 782 spigot;
#X obj 122 725 == 0;
#X obj 173 782 spigot;
#X msg -405 388 0;
#X msg 780 1174 16384;
#X msg 733 1174 8192;
#X obj 451 1353 abs_small_paul;
#X msg 687 1174 4096;
#X msg 834 1174 32768;
#X msg 637 1174 2048;
#X msg 593 1174 1024;
#X msg 890 1174 65536;
#X obj 780 1230 f;
#X obj 673 1315 nbx 5 14 -36 36 0 1 empty empty transpose -53 7 0 10 #fcfcfc #000000 #e1e1e1 0 256;
#X obj 724 1125 select 0 1 2 3 4 5 6 7;
#X msg 943 1174 131072;
#X obj 451 1407 *~ 2;
#X obj 488 1407 *~ 2;
#X text 1848 1503 finish Implementing Paul's Extreme Music Stretching Algorithm;
#X obj 76 -216 adc~;
#X obj 150 -176 bng 25 250 50 0 empty empty empty 17 7 0 10 #e4e4e4 #4d4d4d #373737;
#X obj -14 -54 tabwriter~ 0-sample;
#X msg 12 -176 rec;
#X msg 36 -137 stop;
#X msg -797 -122 44100;
#X msg -694 -227 903168;
#X obj 182 -105 tabwrite~ 1-sample;
#X obj 162 -47 tabwriter~ 1-sample;
#X floatatom 661 1388 5 0 0 0 IDK\ LOL - - 12;
#X obj 451 1293 *;
#X obj 477 1253 r total_samples;
#X floatatom 12 251 10 0 0 0 - - - 10;
#X floatatom 12 284 10 0 0 0 - - - 10;
#X obj -797 -157 loadbang;
#X obj 411 572 tgl 25 0 empty empty ESS 3 -8 0 10 #191919 #e1e1e1 #e1e1e1 0 1;
#X obj 83 844 spigot;
#X obj 173 844 spigot;
#X obj 283 801 == 0;
#X msg -330 388 0;
#X obj 451 1220 r sample_start;
#X text 268 453 ADSR;
#X obj 411 600 hradio 20 1 0 8 empty empty Window\ Size 28 -8 0 10 #191919 #e1e1e1 #e1e1e1 0;
#X floatatom 527 580 7 0 0 0 - - - 10;
#X msg -299 389 4;
#X obj 857 1905 sig2float~;
#X obj 902 1733 vline~;
#X obj 902 1805 +~;
#X obj 918 1466 -;
#X obj 1057 1653 r sample_start;
#X obj 995 1293 r sample_start;
#X obj 872 1313 r sample_end;
#X obj 934 1581 abs;
#X obj 965 1475 r sample_rate;
#X obj 925 1509 /;
#X obj 902 1659 pack f f;
#X msg 984 1694 0;
#X obj 982 1425 *;
#X obj 993 1384 r total_samples;
#X obj 1044 1772 *;
#X obj 1087 1736 r total_samples;
#X obj 859 1433 *;
#X obj 870 1392 r total_samples;
#X obj 925 1546 * 1000;
#X obj 917 1612 t b;
#X obj 982 1359 float;
#X obj 859 1359 float;
#X obj 1044 1716 float;
#X floatatom 769 1278 14 0 0 0 - - - 8;
#X obj 635 565 bng 25 250 50 0 empty empty Stop 3 -8 0 10 #191919 #e1e1e1 #e1e1e1;
#X floatatom 582 600 5 0 0 1 Multiplier - - 10;
#X msg -254 388 16;
#X obj 477 750 s ess_stop;
#X obj 474 780 s ess_mult;
#X obj 462 554 s ess_toggle;
#X obj 983 1640 r ess_stop;
#X msg 513 -78 pluginmode dark;
#X obj 283 766 r ess_toggle;
#X obj 582 565 tgl 25 0 empty empty Play/Pause -10 -8 0 10 #191919 #e1e1e1 #e1e1e1 0 1;
#X obj 478 725 s ess_play_pause;
#X obj 1133 1293 r ess_play_pause;
#X obj 1008 1546 r ess_mult;
#X obj 965 1612 *;
#X obj 974 1575 t b;
#X msg 612 565 0;
#X obj 1042 1327 sel 1;
#X obj 1079 1146 lop~;
#X obj 1166 1155 lop~;
#X obj 1136 1338 sel 0;
#X msg 1136 1364 stop;
#X obj 673 1712 spigot;
#X obj 725 1627 r ess_play_pause;
#X floatatom 950 690 10 0 0 0 - - - 10;
#X floatatom 1087 690 10 0 0 0 - - - 10;
#X obj 1083 720 clip 0 2;
#X floatatom 1082 761 5 0 0 0 - - - 12;
#X obj 930 714 clip 0 1;
#X floatatom 698 608 10 0 0 0 - - - 10;
#X text 679 550 LPF;
#X obj 704 554 knob 50 0 22050 0 22050 empty empty #191919 #696969 #E1E1E1 1 0 0 0 1 270 0 0 0 empty empty 0 12 6 -15 0 1 0 0;
#X obj 1305 1728 -;
#X obj 1298 1627 r sample_end;
#X obj 1304 1697 *;
#X obj 1315 1656 r total_samples;
#X floatatom 1299 1769 11 0 0 0 - - - 10;
#X obj 1382 1763 r sample_rate;
#X obj 1371 1790 /;
#X obj 1321 1812 * 1000;
#X floatatom 1321 1838 5 0 0 0 - - - 12;
#X listbox 697 890 26 0 0 0 - - - 12;
#X obj 470 921 /;
#X obj 481 886 r total_samples;
#X msg 902 1694 0 \, \$1 \$2;
#X obj 468 -358 bng 25 250 50 0 empty empty empty 17 7 0 10 #191919 #e1e1e1 #e1e1e1;
#X msg 435 -248 \; 0-sample resize 4.41e+06, f 44;
#X obj 1930 758 *~;
#X obj 1945 687 bng 15 250 50 0 empty empty empty 17 7 0 10 #dcdcdc #000000 #000000;
#N canvas 780 129 376 168 tone 0;
#X obj 52 23 inlet;
#X obj 52 134 outlet~;
#X obj 52 51 else/rand.i 36 84;
#X obj 52 73 mtof;
#X obj 52 97 else/oscbank~ -partial 1 3 5.01 7.02 9.03 11.04 -amp 1 0.3 0.2 0.15 0.1 0.1, f 47;
#X connect 0 0 2 0;
#X connect 2 0 3 0;
#X connect 3 0 4 0;
#X connect 4 0 1 0;
#X restore 1883 728 pd tone;
#X text 1968 687 tone;
#X obj 1945 729 else/asr~ 50 1000;
#X obj 1925 813 dac~;
#X obj -80 979 sfz~;
#X obj -171 1002 sfont~;
#X obj 1607 756 vradio 15 1 0 10 empty empty empty 0 -8 0 10 #dcdcdc #000000 #000000 0;
#N canvas 728 150 712 728 presets 0;
#X obj 73 21 inlet;
#X obj 88 576 s \$0-set;
#X obj 103 516 s \$0-set;
#X obj 118 453 s \$0-set;
#X obj 134 393 s \$0-set;
#X text 145 577 bathroom;
#X text 162 518 living room;
#X msg 73 608 size 40 \, decay 4 \, damp 0.9 \, bw 0.75 \, dry 1 \, early 0.795 \, late 0.04, f 66;
#X obj 73 633 s \$0-set;
#X text 130 634 "quick fix";
#X obj 149 333 s \$0-set;
#X obj 164 277 s \$0-set;
#X text 234 217 Last row of the church;
#X msg 180 194 size 200 \, decay 9 \, damp 0.7 \, bw 0.8 \, dry 0.1 \, early 0.18 \, late 0.4, f 66;
#X obj 180 216 s \$0-set;
#X obj 195 163 s \$0-set;
#X obj 210 109 s \$0-set;
#X obj 73 62 select 0 1 2 3 4 5 6 7 8 9;
#X msg 118 427 size 50 \, decay 1.5 \, damp 0.1 \, bw 0.75 \, dry 0.84 \, early 0.31 \, late 0.1, f 69;
#X text 179 453 Bright \, small hall;
#X msg 134 369 size 40 \, decay 20 \, damp 0.5 \, bw 0.75 \, dry 1 \, early 0.31 \, late 0.031, f 67;
#X text 191 395 Nice hall effect;
#X msg 149 309 size 6 \, decay 15 \, damp 0.9 \, bw 0.1 \, dry 0.31 \, early 0.31 \, late 0.31, f 67;
#X text 207 333 Singing in the Sewer;
#X text 220 278 church;
#X text 251 164 cathedral;
#X text 264 110 canyon;
#X msg 210 86 size 300 \, decay 103 \, damp 0.43 \, bw 0.51 \, dry 0.55 \, early 0.05 \, late 0.1, f 71;
#X msg 195 141 size 143 \, decay 7 \, damp 0.71 \, bw 0.34 \, dry 0.7 \, early 0.28 \, late 0.35, f 69;
#X msg 164 252 size 80 \, decay 4.85 \, damp 0.41 \, bw 0.69 \, dry 0.7 \, early 0.35 \, late 0.28, f 71;
#X msg 103 492 size 16 \, decay 1.24 \, damp 0.18 \, bw 0.95 \, dry 0.7 \, early 0.18 \, late 0.14, f 71;
#X msg 88 550 size 5 \, decay 0.6 \, damp 0.62 \, bw 0.48 \, dry 0.5 \, early 0.25 \, late 0.25, f 69;
#X obj 328 679 outlet;
#X obj 328 648 r \$0-set;
#X connect 0 0 17 0;
#X connect 7 0 8 0;
#X connect 13 0 14 0;
#X connect 17 0 7 0;
#X connect 17 1 31 0;
#X connect 17 2 30 0;
#X connect 17 3 18 0;
#X connect 17 4 20 0;
#X connect 17 5 22 0;
#X connect 17 6 29 0;
#X connect 17 7 13 0;
#X connect 17 8 28 0;
#X connect 17 9 27 0;
#X connect 18 0 3 0;
#X connect 20 0 4 0;
#X connect 22 0 10 0;
#X connect 27 0 16 0;
#X connect 28 0 15 0;
#X connect 29 0 11 0;
#X connect 30 0 2 0;
#X connect 31 0 1 0;
#X connect 33 0 32 0;
#X restore 1607 928 pd presets;
#X text 1607 734 presets \;;
#X text 1627 771 - bathroom, f 13;
#X text 1627 755 - "quick fix";
#X text 1627 786 - living room;
#X text 1627 846 - church;
#X text 1627 831 - singing in the Sewer;
#X text 1627 817 - nice hall effect;
#X text 1627 801 - bright \, small hall;
#X text 1627 861 - last row of the church;
#X text 1627 876 - cathedral;
#X text 1627 891 - canyon;
#N canvas 492 167 892 519 reverb_control 0;
#X obj -1 -1 cnv 15 627 147 empty empty empty 20 12 0 14 #696969 #e1e1e1 0;
#X floatatom 5 69 5 1 300 2 size - - 10;
#X msg 213 102 dry \$1;
#X msg 263 127 early \$1;
#X msg 392 157 clear;
#X floatatom 161 70 5 0 1 2 bandwidth - - 10;
#X floatatom 57 68 7 0 100 2 decay - - 10;
#X floatatom 109 68 4 0 1 2 damp - - 10;
#X msg 359 127 wet \$1;
#X msg 102 101 damp \$1;
#X msg 53 133 decay \$1;
#X msg 0 106 size \$1;
#X floatatom 320 70 0 0 1 2 late - - 0;
#X floatatom 271 69 0 0 1 2 early - - 0;
#X floatatom 215 70 6 0 1 2 dry - - 0;
#X floatatom 368 68 0 -90 0 2 wet - - 0;
#X msg 319 96 late \$1;
#X msg 158 133 bw \$1;
#X text 643 118 - damp: Controls the high frequency damping and affects the response of the early reflections and the decay of the late reflections. The higher the value \, the less intense is the reverb., f 60;
#X text 644 271 - dry: Controls the dry signal level, f 60;
#X text 642 181 - bw: Controls the input bandwidth \, which is like a "tone" control. Small values cause a smaller frequency range to be processed. In general \, the effect of this control can be heard in the treble band. Smaller values cause a "muffled" and less bright reverb., f 60;
#X text 641 426 - late: Controls the late reflections level (a.k.a. "reverb tail"). It determines the amount of the hall effect of the reverb and determines how intense the reverb appears to be., f 60;
#X text 653 528 - wet: Controls a master gain for both early and late reflections., f 60;
#X text 644 289 - early: Controls the early reflections level \, which are similar to slapback echoes. Though they are not responsible for the typical hall effect generally linked with reverb \, they contain lots of acoustic information about the setup in which the sound occurs. Generally \, early reflections about 10-20 dB higher than the late reflections gives a typical reverb effect. By setting it considerably smaller than the late reflections level \, you can simulate a distance between the source and the listener.;
#X text 645 -2 - size: Controls the overall characteristics and influences both the early and late reflections. The initial maxsize is 300 squared meters \, but if initialize the object with a room size bigger than that (with the -size flag) \, it becomes the maximum limit. You can specify an even larger maximum size with the -maxsize flag.;
#X obj 194 328 outlet;
#X floatatom 458 -54 2 0 1 0 - - - 0;
#X msg 450 151 spread \$1, f 13;
#X text 644 90 - decay: Controls the approximate time decay duration of the reverb. In general \, it affects the late reflections;
#X text 637 253 - spread: Controls the stereo spread width, f 60;
#X text 646 492 - clear: this clears the delay lines;
#X obj 4 4 knob 50 0 100 0 0 empty empty #191919 #696969 #E1E1E1 1 0 0 0 1 270 0 0 0 empty empty 0 10 17 42 0 1 0 0;
#X obj 56 4 knob 50 0 100 0 0 empty empty #191919 #696969 #E1E1E1 1 0 0 0 1 270 0 0 0 empty empty 0 12 6 -15 0 1 0 0;
#X obj 108 4 knob 50 0 1 0 0 empty empty #191919 #696969 #E1E1E1 1 0 0 0 1 270 0 0 0 empty empty 0 12 6 -15 0 1 0 0;
#X obj 160 4 knob 50 0 1 0 0 empty empty #191919 #696969 #E1E1E1 1 0 0 0 1 270 0 0 0 empty empty 0 12 6 -15 0 1 0 0;
#X obj 212 4 knob 50 0 1 0 0 empty empty #191919 #696969 #E1E1E1 1 0 0 0 1 270 0 0 0 empty empty 0 12 6 -15 0 1 0 0;
#X obj 264 4 knob 50 0 1 0 0 empty empty #191919 #696969 #E1E1E1 1 0 0 0 1 270 0 0 0 empty empty 0 12 6 -15 0 1 0 0;
#X obj 316 4 knob 50 0 1 0 0 empty empty #191919 #696969 #E1E1E1 1 0 0 0 1 270 0 0 0 empty empty 0 12 6 -15 0 1 0 0;
#X obj 368 4 knob 50 0 1 0 0 empty empty #191919 #696969 #E1E1E1 1 0 0 0 1 270 0 0 0 empty empty 0 12 6 -15 0 1 0 0;
#X obj 391 63 bng 25 250 50 0 empty empty clear 2 -4 0 10 #191919 #e1e1e1 #e1e1e1;
#X obj 169 -170 loadbang;
#X msg 214 -37 1;
#X msg 370 -35 0;
#X connect 1 0 11 0;
#X connect 2 0 25 0;
#X connect 3 0 25 0;
#X connect 4 0 25 0;
#X connect 5 0 17 0;
#X connect 6 0 10 0;
#X connect 7 0 9 0;
#X connect 8 0 25 0;
#X connect 9 0 25 0;
#X connect 10 0 25 0;
#X connect 11 0 25 0;
#X connect 12 0 16 0;
#X connect 13 0 3 0;
#X connect 14 0 2 0;
#X connect 15 0 8 0;
#X connect 16 0 25 0;
#X connect 17 0 25 0;
#X connect 26 0 27 0;
#X connect 27 0 25 0;
#X connect 31 0 1 0;
#X connect 32 0 6 0;
#X connect 33 0 7 0;
#X connect 34 0 5 0;
#X connect 35 0 14 0;
#X connect 36 0 13 0;
#X connect 37 0 12 0;
#X connect 38 0 15 0;
#X connect 39 0 4 0;
#X connect 40 0 42 0;
#X connect 40 0 41 0;
#X connect 40 0 26 0;
#X connect 41 0 35 0;
#X connect 42 0 38 0;
#X coords 0 0 1 1 421 94 1 0 0;
#X restore 509 453 pd reverb_control;
#X obj 1044 994 giga.rev~, f 24;
#X obj 1238 997 giga.rev~, f 24;
#X floatatom -677 835 4 0 127 0 - - - 0;
#X obj -677 747 vradio 15 1 0 5 empty empty empty 0 -8 0 10 #dfdfdf #000000 #000000 0;
#X floatatom -624 835 4 0 127 0 - - - 0;
#X obj -624 747 vradio 15 1 0 4 empty empty empty 0 -8 0 10 #dfdfdf #000000 #000000 0;
#X obj -624 814 + 1;
#X floatatom -551 832 4 0 1000 0 - - - 0;
#X obj -551 744 vradio 15 1 0 5 empty empty empty 0 -8 0 10 #dfdfdf #000000 #000000 0;
#X floatatom -495 832 4 0 127 0 - - - 0;
#X obj -495 744 vradio 15 1 0 4 empty empty empty 0 -8 0 10 #dfdfdf #000000 #000000 0;
#X obj -495 811 + 1;
#X text -627 726 channel;
#X text -498 726 channel;
#X text -690 726 program;
#X text -557 726 bank, f 6;
#X obj -575 917 else/display;
#X obj -705 917 else/display;
#X obj -705 861 else/pack2 f 1;
#X obj -575 858 else/pack2 f 1;
#X obj -705 888 else/insert pgm;
#X obj -575 888 else/insert bank;
#X connect 15 0 28 0;
#X connect 16 0 17 0;
#X connect 16 0 75 0;
#X connect 17 0 18 0;
#X connect 18 0 36 0;
#X connect 18 0 37 0;
#X connect 18 0 38 0;
#X connect 18 0 51 0;
#X connect 18 0 32 0;
#X connect 18 0 22 0;
#X connect 19 0 212 0;
#X connect 20 0 213 0;
#X connect 22 0 21 0;
#X connect 22 1 23 0;
#X connect 24 0 183 0;
#X connect 24 0 181 0;
#X connect 24 0 94 0;
#X connect 24 0 89 0;
#X connect 24 0 302 0;
#X connect 24 0 301 0;
#X connect 27 0 256 0;
#X connect 29 0 16 0;
#X connect 30 0 49 0;
#X connect 30 1 49 1;
#X connect 32 0 31 0;
#X connect 36 0 33 0;
#X connect 37 0 34 0;
#X connect 38 0 35 0;
#X connect 41 0 55 0;
#X connect 42 0 56 0;
#X connect 44 0 45 0;
#X connect 45 0 48 0;
#X connect 45 0 47 0;
#X connect 46 0 45 1;
#X connect 46 0 70 1;
#X connect 46 0 150 0;
#X connect 49 0 24 0;
#X connect 51 0 50 0;
#X connect 53 0 144 0;
#X connect 54 0 273 0;
#X connect 55 0 167 0;
#X connect 56 0 168 0;
#X connect 57 0 176 0;
#X connect 57 0 59 0;
#X connect 57 0 166 0;
#X connect 58 0 54 0;
#X connect 59 0 53 0;
#X connect 60 0 70 0;
#X connect 60 0 47 0;
#X connect 61 0 60 0;
#X connect 64 0 12 0;
#X connect 65 0 13 0;
#X connect 66 0 67 0;
#X connect 67 0 68 0;
#X connect 69 0 67 1;
#X connect 70 0 44 0;
#X connect 72 0 71 0;
#X connect 72 0 140 0;
#X connect 73 0 139 0;
#X connect 74 1 72 0;
#X connect 75 0 138 0;
#X connect 76 0 44 0;
#X connect 77 0 88 0;
#X connect 77 0 147 0;
#X connect 77 0 148 0;
#X connect 77 0 122 0;
#X connect 77 0 169 0;
#X connect 77 0 184 0;
#X connect 77 0 173 0;
#X connect 77 0 219 0;
#X connect 77 0 224 0;
#X connect 77 0 251 0;
#X connect 78 0 76 0;
#X connect 80 0 84 0;
#X connect 81 0 85 0;
#X connect 82 0 86 0;
#X connect 83 0 87 0;
#X connect 84 0 90 0;
#X connect 85 0 91 0;
#X connect 86 0 92 0;
#X connect 87 0 93 0;
#X connect 88 0 82 0;
#X connect 97 0 98 0;
#X connect 97 0 108 0;
#X connect 98 0 103 1;
#X connect 98 0 104 0;
#X connect 100 0 102 0;
#X connect 101 0 102 1;
#X connect 102 0 103 0;
#X connect 104 0 105 0;
#X connect 105 0 123 0;
#X connect 105 1 124 0;
#X connect 106 0 119 1;
#X connect 107 0 108 0;
#X connect 108 0 97 0;
#X connect 110 0 109 0;
#X connect 111 0 110 0;
#X connect 111 0 112 0;
#X connect 112 0 109 1;
#X connect 112 0 113 0;
#X connect 112 0 114 0;
#X connect 113 0 112 1;
#X connect 114 0 115 0;
#X connect 115 0 112 1;
#X connect 116 0 172 0;
#X connect 116 0 170 0;
#X connect 118 0 119 0;
#X connect 118 1 14 0;
#X connect 119 0 24 0;
#X connect 120 0 127 0;
#X connect 122 0 81 0;
#X connect 125 0 19 0;
#X connect 126 0 20 0;
#X connect 128 0 129 0;
#X connect 134 0 133 0;
#X connect 136 0 137 0;
#X connect 137 0 134 0;
#X connect 138 0 74 0;
#X connect 138 1 73 0;
#X connect 139 0 74 1;
#X connect 141 0 266 0;
#X connect 142 0 267 0;
#X connect 143 0 55 1;
#X connect 143 0 56 1;
#X connect 144 0 145 0;
#X connect 145 0 146 0;
#X connect 145 1 58 0;
#X connect 146 0 143 0;
#X connect 147 0 83 0;
#X connect 148 0 80 0;
#X connect 149 0 78 0;
#X connect 149 0 19 0;
#X connect 149 0 20 0;
#X connect 150 0 45 0;
#X connect 151 0 157 0;
#X connect 152 0 159 0;
#X connect 153 0 151 1;
#X connect 153 0 152 1;
#X connect 154 0 151 0;
#X connect 155 0 152 0;
#X connect 156 0 155 0;
#X connect 156 0 154 0;
#X connect 157 0 40 0;
#X connect 158 0 157 1;
#X connect 158 0 159 1;
#X connect 158 0 160 0;
#X connect 159 0 39 0;
#X connect 161 0 174 1;
#X connect 161 0 175 1;
#X connect 162 0 272 0;
#X connect 163 0 167 1;
#X connect 164 0 168 1;
#X connect 165 0 163 0;
#X connect 166 0 162 0;
#X connect 167 0 317 0;
#X connect 168 0 318 0;
#X connect 169 0 20 0;
#X connect 170 0 111 0;
#X connect 171 0 108 0;
#X connect 172 0 97 0;
#X connect 173 0 161 0;
#X connect 174 0 152 0;
#X connect 174 1 151 0;
#X connect 175 0 152 0;
#X connect 175 1 151 0;
#X connect 176 0 54 0;
#X connect 180 0 183 1;
#X connect 180 0 182 0;
#X connect 181 0 216 0;
#X connect 182 0 181 1;
#X connect 183 0 217 0;
#X connect 184 0 180 0;
#X connect 185 0 193 0;
#X connect 186 0 193 0;
#X connect 187 0 197 0;
#X connect 187 1 198 0;
#X connect 187 2 209 0;
#X connect 188 0 193 0;
#X connect 189 0 193 0;
#X connect 190 0 193 0;
#X connect 191 0 193 0;
#X connect 192 0 193 0;
#X connect 193 0 187 1;
#X connect 193 0 223 0;
#X connect 194 0 187 2;
#X connect 195 0 191 0;
#X connect 195 1 190 0;
#X connect 195 2 188 0;
#X connect 195 3 186 0;
#X connect 195 4 185 0;
#X connect 195 5 189 0;
#X connect 195 6 192 0;
#X connect 195 7 196 0;
#X connect 196 0 193 0;
#X connect 197 0 152 0;
#X connect 198 0 151 0;
#X connect 200 0 202 0;
#X connect 200 0 207 0;
#X connect 200 1 208 0;
#X connect 201 0 207 0;
#X connect 203 0 202 0;
#X connect 203 0 208 0;
#X connect 204 0 202 0;
#X connect 204 0 208 0;
#X connect 205 0 23 0;
#X connect 206 0 21 0;
#X connect 210 0 187 0;
#X connect 211 0 210 1;
#X connect 212 0 25 0;
#X connect 213 0 26 0;
#X connect 214 0 205 0;
#X connect 215 0 254 0;
#X connect 216 0 174 0;
#X connect 217 0 175 0;
#X connect 218 0 217 1;
#X connect 218 0 216 1;
#X connect 219 0 215 0;
#X connect 220 0 210 0;
#X connect 222 0 195 0;
#X connect 224 0 222 0;
#X connect 225 0 270 0;
#X connect 226 0 227 0;
#X connect 227 0 225 0;
#X connect 228 0 234 0;
#X connect 228 0 235 0;
#X connect 229 0 247 1;
#X connect 230 0 245 1;
#X connect 231 0 246 1;
#X connect 232 0 244 0;
#X connect 232 0 262 0;
#X connect 233 0 234 1;
#X connect 234 0 243 0;
#X connect 235 0 292 0;
#X connect 235 0 289 0;
#X connect 236 0 226 0;
#X connect 237 0 228 1;
#X connect 238 0 237 1;
#X connect 239 0 227 1;
#X connect 240 0 239 1;
#X connect 241 0 228 0;
#X connect 242 0 241 1;
#X connect 243 0 232 0;
#X connect 244 0 235 0;
#X connect 245 0 237 0;
#X connect 246 0 241 0;
#X connect 247 0 239 0;
#X connect 248 0 187 0;
#X connect 248 0 290 0;
#X connect 249 0 252 0;
#X connect 249 0 264 0;
#X connect 250 0 253 0;
#X connect 251 0 250 0;
#X connect 255 0 236 0;
#X connect 257 0 218 0;
#X connect 258 0 259 0;
#X connect 260 0 265 0;
#X connect 260 0 268 0;
#X connect 261 0 262 1;
#X connect 261 0 263 0;
#X connect 262 0 235 1;
#X connect 263 0 262 0;
#X connect 264 0 258 0;
#X connect 265 0 247 0;
#X connect 265 0 246 0;
#X connect 266 0 52 0;
#X connect 266 0 62 0;
#X connect 267 0 52 1;
#X connect 267 0 63 0;
#X connect 268 0 269 0;
#X connect 269 0 226 0;
#X connect 270 0 248 0;
#X connect 271 0 270 1;
#X connect 272 0 276 0;
#X connect 273 0 274 0;
#X connect 274 0 275 0;
#X connect 275 0 143 0;
#X connect 276 0 165 0;
#X connect 276 0 164 0;
#X connect 277 0 266 1;
#X connect 277 0 267 1;
#X connect 279 0 277 0;
#X connect 280 0 284 0;
#X connect 281 0 282 0;
#X connect 282 0 280 0;
#X connect 283 0 282 1;
#X connect 284 0 286 0;
#X connect 285 0 286 1;
#X connect 286 0 287 0;
#X connect 287 0 288 0;
#X connect 290 0 95 0;
#X connect 291 0 290 1;
#X connect 292 0 226 0;
#X connect 295 0 300 0;
#X connect 295 0 300 1;
#X connect 296 0 297 0;
#X connect 296 0 299 0;
#X connect 297 0 295 0;
#X connect 299 0 295 1;
#X connect 301 0 152 0;
#X connect 301 1 151 0;
#X connect 302 0 152 0;
#X connect 302 1 151 0;
#X connect 303 0 304 0;
#X connect 304 0 317 0;
#X connect 304 0 318 0;
#X connect 316 0 317 0;
#X connect 316 0 318 0;
#X connect 317 0 141 0;
#X connect 318 0 142 0;
#X connect 319 0 335 0;
#X connect 320 0 319 0;
#X connect 321 0 335 1;
#X connect 322 0 323 0;
#X connect 323 0 321 0;
#X connect 324 0 336 0;
#X connect 325 0 324 0;
#X connect 326 0 336 1;
#X connect 327 0 328 0;
#X connect 328 0 326 0;
#X connect 333 0 302 0;
#X connect 334 0 302 0;
#X connect 335 0 337 0;
#X connect 336 0 338 0;
#X connect 337 0 334 0;
#X connect 338 0 333 0;
