#N canvas 100 100 1280 700 10;
#N canvas 0 0 450 250 (subpatch) 0;
#X array 0-cover 1 float 4;
#X coords 0 1 1 -1 907 102 1;
#X restore 149 24 graph;
#N canvas 0 0 450 250 (subpatch) 0;
#X array 1-cover 1 float 4;
#X coords 0 1 1 -1 907 102 1;
#X restore 149 141 graph;
#N canvas 0 0 450 250 (subpatch) 0;
#X array 1-sample 1.21716e+07 float 4;
#X coords 0 -1 1.21716e+07 1 907 101 1;
#X restore 149 141 graph;
#N canvas 0 0 450 250 (subpatch) 0;
#X array 0-sample 1.21716e+07 float 4;
#X coords 0 -1 1.21716e+07 1 907 102 1;
#X restore 149 24 graph;
#X text 40 60 Load Sample;
#X obj 1061 24 scope~ 200 100 64 3 32 -1 1 0 0 0 0 225 225 225 25 25 25 105 105 105 0 empty;
#X obj 1061 141 scope~ 200 100 64 3 32 -1 1 0 0 0 0 225 225 225 25 25 25 105 105 105 0 empty;
#X floatatom 21 569 10 0 0 2 Transpose - - 8;
#X obj -1188 1804 tgl 25 0 empty empty empty 17 7 0 10 #191919 #e1e1e1 #e1e1e1 0 1;
#X obj 12 59 bng 25 250 50 0 empty empty empty 17 7 0 10 #191919 #e1e1e1 #e1e1e1;
#X obj -197 -145 openpanel;
#X msg -197 -121 load \$1;
#X obj -197 -94 sfload sample;
#X obj -1260 1987 play~ 0-sample;
#X obj -1141 1987 play~ 1-sample;
#X obj 152 245 hsl 901 30 0 1 0 1 empty empty Sample\ Start -63 14 0 10 #191919 #e1e1e1 #e1e1e1 3220 1;
#X obj 152 278 hsl 901 30 0 1 0 1 empty empty Sample\ End -58 14 0 10 #191919 #e1e1e1 #e1e1e1 90000 1;
#X obj -107 -21 s total_samples;
#X obj -1366 1274 *;
#X obj -1355 1238 r total_samples;
#X obj -107 -62 unpack f f;
#X obj -107 16 s sample_rate;
#X obj -1355 1297 r sample_rate;
#X obj -1366 1325 /;
#X obj -1366 1381 * 1000;
#X obj -1038 1281 *;
#X obj -1027 1245 r total_samples;
#X obj -1027 1304 r sample_rate;
#X obj -1038 1332 /;
#X obj -1038 1388 * 1000;
#X obj -1267 1658 pack f f f;
#X obj -1196 1381 hsl 128 17 0 1 0 0 empty empty empty -2 -8 0 10 #191919 #e1e1e1 #e1e1e1 0 1;
#X obj -1208 1460 -;
#X obj -1208 1556 *;
#X msg -1267 1762 start \$1 \$2 \$3;
#X obj -1113 1297 t b;
#X obj -1238 1415 t b;
#X obj -1229 1263 t b;
#X obj -1208 1624 abs;
#X obj 21 585 keyboard 16 80 8 0 0 0 empty empty;
#X obj -1013 1644 mtof;
#X obj -1013 1683 expr 130.813 / $f1;
#X obj -1013 1604 stripnote;
#X obj -1079 1567 t b;
#X obj -799 1672 unpack f f;
#X obj -768 1736 sel 0;
#X msg -753 1795 stop;
#X obj -1242 1197 r sample_start;
#X obj 226 256 s sample_start;
#X obj -1113 1229 r sample_end;
#X obj 230 289 s sample_end;
#X obj 133 -35 array set 0-cover;
#X obj 389 -35 array size 0-cover;
#X obj 263 -35 array size 1-cover;
#X obj 12 -35 array set 1-cover;
#X msg 135 -75 1;
#X msg 12 -75 -1;
#X obj 147 2 cnv 15 97 20 empty empty empty 20 12 0 14 #232323 #e1e1e1 0;
#X obj 149 128 cnv 15 126 11 empty empty empty 20 12 0 14 #232323 #e1e1e1 0;
#X obj 1533 965 pack f f f;
#X obj 1533 1008 route 1 2 3 4;
#X listbox 1503 1052 9 0 0 0 - - - 0;
#X listbox 1561 1052 9 0 0 0 - - - 0;
#X listbox 1671 1052 9 0 0 0 - - - 0;
#X listbox 1737 1052 9 0 0 0 - - - 0;
#X obj 67 -120 loadbang;
#X obj 47 42 s s_load_bang;
#X obj -196 -190 r s_load_bang;
#X obj -51 524 notein;
#X obj 12 141 messbox 136 24 25 25 25 225 225 225 0 12;
#X msg -142 105 set Samples: \$1;
#X obj 12 167 messbox 136 24 25 25 25 225 225 225 0 12;
#X obj 12 193 messbox 136 24 25 25 25 225 225 225 0 12;
#X obj 12 219 messbox 136 24 25 25 25 225 225 225 0 12;
#X msg -142 140 set Rate: \$2;
#X msg -140 175 set Channels: \$3;
#X msg -140 209 set Bits: \$4;
#X obj 47 1902 send~ output0;
#X obj 180 1902 send~ output1;
#X obj 949 774 receive~ output0;
#X obj 1200 774 receive~ output1;
#X text 28 15 SR9001 Sampler;
#X obj 1678 1123 unpack f f;
#X obj 1614 1123 stripnote;
#X obj 1620 912 text define active_notes;
#X obj 1724 1161 moses 1;
#X obj 1727 1231 pack f f;
#X obj 1694 1345 text delete active_notes;
#X obj 1694 1305 text search active_notes;
#X obj 1648 1270 unpack f f;
#X obj 1648 1231 pack f f;
#X obj 1337 1116 unpack f f;
#X obj 1271 1116 stripnote;
#X obj 1383 1154 moses 1;
#X obj 1386 1224 pack f f;
#X obj 1353 1338 text delete active_notes;
#X obj 1353 1298 text search active_notes;
#X obj 1307 1263 unpack f f;
#X obj 1307 1224 pack f f;
#X obj 1386 1263 text insert active_notes;
#X obj 1727 1270 text insert active_notes;
#X obj 1788 1193 t b;
#X obj 1788 1231 text size active_notes;
#X obj 1447 1186 t b;
#X obj 1447 1224 text size active_notes;
#X obj 1153 1659 text get active_notes;
#X obj 1135 1548 text size active_notes;
#X obj 1135 1586 - 1;
#X obj 1135 1484 t b;
#X obj 1135 1616 sel -1;
#X obj 1548 1338 t b;
#X obj 1596 1338 t b;
#X floatatom 1659 1419 5 0 0 0 - - - 12;
#X obj -544 671 crusher~;
#X obj -544 704 quantizer~;
#X msg 130 1703 interp \$1;
#X obj 65 1703 bng 25 250 50 0 empty empty empty 17 7 0 10 #dfdfdf #000000 #000000;
#X text 93 1701 sync;
#X obj 101 1756 downsample~;
#X msg -3 1703 interp \$1;
#X obj -18 1756 downsample~;
#X obj 162 413 hsl 128 17 0 1 0 1 empty empty empty -2 -8 0 10 #191919 #e1e1e1 #e1e1e1 12700 1;
#X obj 169 456 *;
#X obj 212 439 r sample_rate;
#X obj 159 487 s sample_rate_reduction;
#X obj 75 1616 r sample_rate_reduction;
#X floatatom 301 413 7 0 0 0 - - - 12;
#X text 155 387 Sample Rate Reduction;
#X obj 1503 1673 expr ($f1 == 0) && ($f2 == 0);
#X obj 1615 1214 t b;
#X obj 1503 1757 sel 1;
#X floatatom 1353 1380 5 0 0 0 - - - 12;
#X floatatom 1815 1416 5 0 0 0 - - - 12;
#X obj 1817 1477 sel 1;
#X obj 1424 1484 sel 1;
#X obj -51 553 pack f f;
#X obj -182 250 s sample_loaded;
#X obj -86 400 r sample_loaded;
#X obj -182 209 t b;
#X obj 1051 993 dac~;
#X obj 1196 585 dsponoff~;
#X obj 1164 618 tgl 18 1 empty empty empty 17 7 0 10 #191919 #e1e1e1 #e1e1e1 0 1;
#X obj 1050 638 hsl 130 19 0 1 0 1 empty empty empty -2 -8 0 10 #191919 #e1e1e1 #e1e1e1 5548 1;
#X obj 1086 829 *~;
#X obj 1137 829 *~;
#X text 1047 617 Volume;
#X obj 1099 766 *;
#X obj 1047 552 loadbang;
#X obj 1185 681 t b;
#X msg 1161 591 0;
#X floatatom 1034 741 5 0 0 0 - - - 12;
#X obj 1034 705 t b;
#X obj 972 705 == 0;
#X text 1122 617 Mute;
#X msg 37 441 10512;
#X obj 29 407 bng 25 250 50 0 empty empty empty 17 7 0 10 #191919 #e1e1e1 #e1e1e1;
#X text 12 380 10512 Hz;
#X floatatom 1480 1595 5 0 0 0 - - - 12;
#X floatatom 1610 1548 5 0 0 0 - - - 12;
#X obj 1568 1595 t b;
#X obj -873 1060 mono;
#X listbox -871 1178 9 0 0 0 - - - 0;
#X obj -864 1120 pack f f;
#X obj 1153 993 send~ to_scope0;
#X obj 1164 963 send~ to_scope1;
#X obj 1061 -44 receive~ to_scope0;
#X obj 1177 -44 receive~ to_scope1;
#X obj 1461 570 hsl 128 17 0 1 0 1 empty empty empty -2 -8 0 10 #191919 #e1e1e1 #e1e1e1 2946 1;
#X obj 1458 611 *;
#X floatatom 1662 639 7 0 0 0 - - - 12;
#X obj 1511 596 r total_samples;
#X obj 37 471 /;
#X obj -69 430 r sample_rate;
#X obj 12 91 messbox 136 49 25 25 25 225 225 225 0 12;
#X msg -14 -145 set File: \$1;
#X obj 1532 912 poly 3 0;
#X listbox -25 -287 117 0 0 0 - - - 12;
#X obj 36 -231 list length;
#X floatatom 36 -205 5 0 0 0 - - - 12;
#X obj 165 -217 list split;
#X listbox 165 -178 100 0 0 0 - - - 10;
#X obj 172 -251 t b;
#X msg 221 -242 1;
#X obj -20 -320 file splitname /;
#X floatatom -542 1197 5 0 0 0 - - - 12;
#X msg 278 358 1;
#X obj 389 358 loadbang;
#X obj 100 407 bng 25 250 50 0 empty empty empty 17 7 0 10 #191919 #e1e1e1 #e1e1e1;
#X obj -650 1003 sig2float~;
#X floatatom -634 1033 5 0 0 0 - - - 12;
#X obj -650 1119 adsr~ 1000 100 0.5 500;
#X text 1463 546 Zoom???;
#X obj 472 465 knob 50 0 5000 0 0 empty empty #191919 #696969 #E1E1E1 1 0 0 0 1 270 0 0 0 empty empty 0 12 6 -15 0 1 0 0;
#X obj 529 465 knob 50 0 5000 0 0 empty empty #191919 #696969 #E1E1E1 1 0 0 0 1 270 0 0 0 empty empty 0 12 6 -15 0 1 0 0;
#X obj 588 465 knob 50 0 1 0 0 empty empty #191919 #696969 #E1E1E1 1 0 0 0 1 270 0 0 0 empty empty 0 12 6 -15 0 1 0 0;
#X obj 650 465 knob 50 0 5000 0 0 empty empty #191919 #696969 #E1E1E1 1 0 0 0 1 270 0 0 0 empty empty 0 12 6 -15 0 1 0 0;
#X floatatom 472 521 5 0 0 0 - - - 12;
#X floatatom 529 521 5 0 0 0 - - - 12;
#X floatatom 588 521 5 0 0 0 - - - 12;
#X floatatom 650 521 5 0 0 0 - - - 12;
#X text 475 446 ADSR;
#X msg 588 423 1;
#X listbox 83 567 9 0 0 0 - - - 0;
#X obj 472 547 s a;
#X obj 529 547 s d;
#X obj 588 547 s s;
#X obj 650 547 s r;
#X obj -600 1074 r a;
#X obj -575 1074 r d;
#X obj -550 1074 r s;
#X obj -523 1074 r r;
#X obj 21 675 s midi_input;
#X obj -432 922 r midi_input;
#X obj 1532 859 r midi_input;
#X obj -666 1213 t b b;
#X msg -609 1234 0;
#X obj -877 1511 t b;
#X msg -666 1252 127;
#X obj -544 594 grain.sampler~;
#X obj 191 1370 sig2float~;
#X obj 223 1280 vline~;
#X obj 175 1303 +~;
#X obj 377 970 -;
#X listbox 302 1303 32 0 0 0 - - - 8;
#X obj 377 1078 *;
#X obj 241 1078 *;
#X obj 643 1120 mtof;
#X obj 377 1232 *;
#X obj 191 1439 /;
#X floatatom 38 1085 11 0 0 0 - - - 12;
#X obj 643 1162 expr 130.813 / $f1;
#X obj 643 1036 stripnote;
#X obj 388 1045 r total_samples;
#X obj 258 1045 r total_samples;
#X obj 216 1395 r total_samples;
#X msg 223 1251 0 \, \$1 \$2;
#X obj 377 1162 expr $f1 * 1000;
#X floatatom 483 1323 10 0 0 0 - - - 12;
#X obj 516 1170 t b;
#X obj 691 1195 unpack f f;
#X obj 722 1232 sel 0;
#X msg 361 1351 0 0 0;
#X obj 241 1003 r sample_start;
#X obj 388 933 r sample_start;
#X obj 377 894 r sample_end;
#X obj 691 922 mono;
#X obj 691 952 pack f f;
#X obj 333 1212 abs;
#X obj 195 1479 s playback_pos;
#X obj 152 312 hsl 901 20 0 1 0 0 empty empty Sample\ Playback\ Position -125 9 0 10 #191919 #e1e1e1 #e1e1e1 0 1;
#X obj 230 313 r playback_pos;
#X obj 1107 362 hradio 20 1 0 8 empty empty Slices 0 -8 0 10 #191919 #e1e1e1 #e1e1e1 0;
#X floatatom 1107 389 5 0 0 0 - - - 12;
#X obj 691 850 r midi_input;
#X obj 1 1385 tabread4~ 0-sample;
#X obj 49 1474 tabread4~ 1-sample;
#X obj 1274 24 text define slices;
#X obj 999 399 r sample_start;
#X obj 999 425 r sample_end;
#X obj 999 465 pack f f;
#X obj 1091 496 text set slices;
#X obj 1175 432 text get slices;
#X obj 1209 507 unpack;
#X obj 142 565 tgl 18 1 empty empty empty 17 7 0 10 #191919 #e1e1e1 #e1e1e1 1 1;
#X msg 1105 264 create;
#X msg 1174 267 range 0 8;
#X obj 1152 297 param sample_select;
#X obj 1287 524 text set slices;
#X msg 1287 450 0 1, f 5;
#X obj 1300 383 until;
#X obj 1342 424 float 0;
#X obj 1353 464 + 1;
#X msg 1299 324 9;
#X obj 1420 438 sel 8;
#X msg 1421 464 0;
#X obj 1081 312 bng 25 250 50 0 empty empty empty 17 7 0 10 #191919 #e1e1e1 #e1e1e1;
#X text 1060 294 Reset Slices;
#X obj 73 535 customkeymap;
#X obj 21 550 spigot;
#X text 159 564 Enable/Disable Keyboard Input;
#X obj 424 1074 r sample_rate;
#X obj 377 1120 /;
#X obj 826 1399 r a;
#X obj 499 1449 r d;
#X obj 524 1449 r s;
#X obj 657 1372 r r;
#X obj 180 1824 *~;
#X obj 47 1841 *~;
#X msg 650 426 50;
#X msg 475 423 10;
#X text 472 1302 time remaining in ms;
#X obj 306 1783 sig2float~;
#X floatatom 306 1809 5 0 0 0 - - - 12;
#X obj 223 1208 pack f f;
#X obj 249 1650 vline~;
#X obj 359 1879 sel 0;
#X obj 333 1847 change;
#X obj 737 1263 t b;
#X floatatom 624 1449 5 0 0 0 - - - 12;
#X floatatom 737 1449 5 0 0 0 - - - 12;
#X msg 737 1486 0 \, 1 \$1;
#X obj 737 1418 float 0;
#X obj 613 1418 float 0;
#X obj 155 352 tgl 25 0 empty empty empty 17 7 0 10 #191919 #e1e1e1 #e1e1e1 0 1;
#X obj 513 -3 s pd;
#X msg 513 -35 pluginmode;
#X text 78 380 Default Hz;
#X msg 530 423 0;
#X obj 1187 545 s slice_start;
#X obj 1280 552 s slice_end;
#X obj -5 250 r slice_start;
#X obj -5 278 r slice_end;
#X text 356 412 Hz;
#X text 72 351 Interpolation;
#X obj 192 358 s s_interp;
#X obj -98 1663 r s_interp;
#X msg 657 1486 0 \$1 0;
#X floatatom 769 513 9 0 0 0 - - - 10;
#X text 769 491 Pitch Offset;
#X obj 767 547 s pitch_offset;
#X obj 540 1036 r pitch_offset;
#X obj 589 1082 +;
#X obj 550 1081 t b;
#X connect 8 0 13 0;
#X connect 8 0 14 0;
#X connect 9 0 66 0;
#X connect 10 0 11 0;
#X connect 10 0 183 0;
#X connect 11 0 12 0;
#X connect 12 0 74 0;
#X connect 12 0 75 0;
#X connect 12 0 76 0;
#X connect 12 0 20 0;
#X connect 12 0 70 0;
#X connect 12 0 138 0;
#X connect 15 0 48 0;
#X connect 16 0 50 0;
#X connect 18 0 23 0;
#X connect 19 0 18 1;
#X connect 20 0 17 0;
#X connect 20 1 21 0;
#X connect 22 0 23 1;
#X connect 23 0 24 0;
#X connect 24 0 32 1;
#X connect 24 0 30 0;
#X connect 25 0 28 0;
#X connect 26 0 25 1;
#X connect 27 0 28 1;
#X connect 28 0 29 0;
#X connect 29 0 32 0;
#X connect 29 0 30 1;
#X connect 30 0 34 0;
#X connect 31 0 33 1;
#X connect 31 0 36 0;
#X connect 32 0 33 0;
#X connect 33 0 38 0;
#X connect 34 0 13 0;
#X connect 34 0 14 0;
#X connect 35 0 30 0;
#X connect 36 0 32 0;
#X connect 36 0 30 0;
#X connect 37 0 32 0;
#X connect 38 0 30 2;
#X connect 39 0 211 0;
#X connect 39 0 202 0;
#X connect 40 0 41 0;
#X connect 41 0 33 1;
#X connect 42 0 40 0;
#X connect 42 0 43 0;
#X connect 42 0 216 0;
#X connect 43 0 32 0;
#X connect 43 0 18 0;
#X connect 43 0 25 0;
#X connect 44 1 45 0;
#X connect 46 0 13 0;
#X connect 46 0 14 0;
#X connect 47 0 37 0;
#X connect 47 0 18 0;
#X connect 49 0 25 0;
#X connect 49 0 35 0;
#X connect 55 0 51 0;
#X connect 55 0 52 0;
#X connect 55 0 53 0;
#X connect 56 0 54 0;
#X connect 59 0 60 0;
#X connect 60 0 61 0;
#X connect 60 1 62 0;
#X connect 60 2 63 0;
#X connect 60 3 64 0;
#X connect 61 0 92 0;
#X connect 61 0 91 0;
#X connect 62 0 82 0;
#X connect 62 0 83 0;
#X connect 65 0 55 0;
#X connect 65 0 56 0;
#X connect 65 0 305 0;
#X connect 67 0 10 0;
#X connect 68 0 135 0;
#X connect 68 1 135 1;
#X connect 70 0 69 0;
#X connect 74 0 71 0;
#X connect 75 0 72 0;
#X connect 76 0 73 0;
#X connect 79 0 143 0;
#X connect 80 0 144 0;
#X connect 82 0 90 1;
#X connect 82 1 85 0;
#X connect 82 1 129 0;
#X connect 82 1 158 0;
#X connect 83 0 86 0;
#X connect 85 0 90 0;
#X connect 85 1 86 1;
#X connect 85 1 101 0;
#X connect 86 0 100 0;
#X connect 86 0 108 0;
#X connect 88 0 87 0;
#X connect 88 0 132 0;
#X connect 88 0 111 0;
#X connect 89 1 88 0;
#X connect 89 1 112 0;
#X connect 90 0 89 0;
#X connect 91 0 98 1;
#X connect 91 1 93 0;
#X connect 91 1 157 0;
#X connect 92 0 94 0;
#X connect 93 0 98 0;
#X connect 93 1 94 1;
#X connect 93 1 103 0;
#X connect 94 0 99 0;
#X connect 94 0 108 0;
#X connect 96 0 95 0;
#X connect 96 0 131 0;
#X connect 96 0 110 0;
#X connect 97 1 96 0;
#X connect 98 0 97 0;
#X connect 101 0 102 0;
#X connect 102 0 100 1;
#X connect 103 0 104 0;
#X connect 104 0 99 1;
#X connect 106 0 107 0;
#X connect 107 0 109 0;
#X connect 108 0 106 0;
#X connect 109 1 105 0;
#X connect 115 0 118 0;
#X connect 116 0 118 0;
#X connect 116 0 120 0;
#X connect 118 0 286 0;
#X connect 119 0 120 0;
#X connect 120 0 287 0;
#X connect 121 0 122 0;
#X connect 122 0 126 0;
#X connect 122 0 124 0;
#X connect 123 0 122 1;
#X connect 125 0 118 1;
#X connect 125 0 120 1;
#X connect 128 0 130 0;
#X connect 129 0 157 0;
#X connect 131 0 134 0;
#X connect 132 0 133 0;
#X connect 133 0 106 0;
#X connect 134 0 106 0;
#X connect 135 0 39 0;
#X connect 137 0 121 0;
#X connect 138 0 136 0;
#X connect 141 0 148 0;
#X connect 141 0 152 0;
#X connect 142 0 146 0;
#X connect 142 0 151 0;
#X connect 143 0 163 0;
#X connect 143 0 139 0;
#X connect 144 0 164 0;
#X connect 144 0 139 1;
#X connect 146 0 144 1;
#X connect 146 0 143 1;
#X connect 147 0 142 0;
#X connect 147 0 149 0;
#X connect 148 0 142 0;
#X connect 148 0 146 0;
#X connect 148 0 150 0;
#X connect 149 0 141 0;
#X connect 150 0 146 1;
#X connect 151 0 150 0;
#X connect 152 0 150 0;
#X connect 154 0 171 0;
#X connect 154 0 124 0;
#X connect 155 0 154 0;
#X connect 157 0 128 0;
#X connect 158 0 128 1;
#X connect 158 0 159 0;
#X connect 159 0 128 0;
#X connect 160 0 162 0;
#X connect 160 1 162 1;
#X connect 160 1 190 0;
#X connect 161 0 42 0;
#X connect 161 0 44 0;
#X connect 162 0 161 0;
#X connect 165 0 5 0;
#X connect 166 0 6 0;
#X connect 167 0 168 0;
#X connect 168 0 169 0;
#X connect 170 0 168 1;
#X connect 171 0 121 0;
#X connect 172 0 171 1;
#X connect 174 0 173 0;
#X connect 175 0 59 0;
#X connect 175 1 59 1;
#X connect 175 2 59 2;
#X connect 176 0 177 0;
#X connect 176 0 179 0;
#X connect 176 0 181 0;
#X connect 177 0 178 0;
#X connect 179 1 180 0;
#X connect 180 0 174 0;
#X connect 181 0 182 0;
#X connect 182 0 179 1;
#X connect 183 0 176 0;
#X connect 184 0 46 0;
#X connect 185 0 121 0;
#X connect 186 0 185 0;
#X connect 186 0 201 0;
#X connect 186 0 288 0;
#X connect 186 0 289 0;
#X connect 186 0 15 0;
#X connect 186 0 16 0;
#X connect 186 0 307 0;
#X connect 187 0 185 0;
#X connect 188 0 189 0;
#X connect 190 0 188 0;
#X connect 190 1 184 0;
#X connect 192 0 196 0;
#X connect 193 0 197 0;
#X connect 194 0 198 0;
#X connect 195 0 199 0;
#X connect 196 0 203 0;
#X connect 197 0 204 0;
#X connect 198 0 205 0;
#X connect 199 0 206 0;
#X connect 201 0 194 0;
#X connect 207 0 190 2;
#X connect 208 0 190 3;
#X connect 209 0 190 4;
#X connect 210 0 190 5;
#X connect 214 0 217 0;
#X connect 214 1 215 0;
#X connect 216 0 214 0;
#X connect 217 0 190 0;
#X connect 219 0 228 0;
#X connect 219 0 229 0;
#X connect 220 0 221 0;
#X connect 221 0 219 0;
#X connect 221 0 254 0;
#X connect 221 0 255 0;
#X connect 222 0 224 0;
#X connect 224 0 281 0;
#X connect 224 0 293 0;
#X connect 225 0 221 1;
#X connect 226 0 230 0;
#X connect 227 0 247 0;
#X connect 227 0 237 0;
#X connect 228 0 248 0;
#X connect 230 0 227 1;
#X connect 230 0 238 0;
#X connect 231 0 321 0;
#X connect 232 0 224 1;
#X connect 233 0 225 1;
#X connect 234 0 228 1;
#X connect 235 0 220 0;
#X connect 236 0 227 0;
#X connect 238 0 222 0;
#X connect 238 0 225 0;
#X connect 238 0 293 0;
#X connect 239 1 240 0;
#X connect 240 0 302 0;
#X connect 240 1 297 0;
#X connect 241 0 220 0;
#X connect 242 0 225 0;
#X connect 243 0 222 1;
#X connect 244 0 222 0;
#X connect 245 0 246 0;
#X connect 245 1 246 1;
#X connect 246 0 231 0;
#X connect 246 0 239 0;
#X connect 247 0 293 1;
#X connect 250 0 249 0;
#X connect 251 0 252 0;
#X connect 251 0 266 0;
#X connect 252 0 260 1;
#X connect 252 0 261 0;
#X connect 253 0 245 0;
#X connect 254 0 120 0;
#X connect 255 0 118 0;
#X connect 257 0 259 0;
#X connect 258 0 259 1;
#X connect 259 0 260 0;
#X connect 261 0 262 0;
#X connect 262 0 308 0;
#X connect 262 1 309 0;
#X connect 263 0 278 1;
#X connect 264 0 266 0;
#X connect 265 0 266 0;
#X connect 266 0 251 0;
#X connect 268 0 267 0;
#X connect 269 0 268 0;
#X connect 269 0 270 0;
#X connect 270 0 267 1;
#X connect 270 0 271 0;
#X connect 270 0 273 0;
#X connect 271 0 270 1;
#X connect 272 0 269 0;
#X connect 273 0 274 0;
#X connect 274 0 270 1;
#X connect 275 0 272 0;
#X connect 277 0 278 0;
#X connect 277 1 7 0;
#X connect 278 0 39 0;
#X connect 280 0 281 1;
#X connect 281 0 236 0;
#X connect 282 0 301 1;
#X connect 285 0 302 1;
#X connect 286 0 78 0;
#X connect 287 0 77 0;
#X connect 288 0 195 0;
#X connect 289 0 192 0;
#X connect 291 0 292 0;
#X connect 292 0 296 0;
#X connect 293 0 235 0;
#X connect 293 0 223 0;
#X connect 294 0 286 1;
#X connect 294 0 287 1;
#X connect 294 0 291 0;
#X connect 295 0 241 0;
#X connect 296 0 295 0;
#X connect 297 0 301 0;
#X connect 298 0 316 0;
#X connect 299 0 300 0;
#X connect 300 0 294 0;
#X connect 301 0 299 0;
#X connect 302 0 298 0;
#X connect 303 0 314 0;
#X connect 305 0 304 0;
#X connect 307 0 193 0;
#X connect 310 0 15 0;
#X connect 311 0 16 0;
#X connect 315 0 119 0;
#X connect 315 0 115 0;
#X connect 316 0 294 0;
#X connect 317 0 319 0;
#X connect 320 0 321 1;
#X connect 320 0 322 0;
#X connect 321 0 226 0;
#X connect 322 0 321 0;
