#N canvas 100 100 1280 720 10;
#X obj 406 551 cnv 15 100 74 empty empty empty 20 12 0 14 #696969 #e1e1e1 0;
#N canvas 0 0 450 250 (subpatch) 0;
#X array 0-sample 1.62237e+07 float 2;
#X coords 0 -1 1.62237e+07 1 1116 102 1;
#X restore 152 21 graph;
#N canvas 0 0 450 250 (subpatch) 0;
#X array 1-sample 1.62237e+07 float 2;
#X coords 0 -1 1.62237e+07 1 1116 101 1;
#X restore 152 141 graph;
#X obj 944 652 cnv 15 326 56 empty empty empty 20 12 0 14 #696969 #e1e1e1 0;
#X obj 1060 318 cnv 15 207 93 empty empty empty 20 12 0 14 #696969 #e1e1e1 0;
#X obj 13 454 cnv 15 225 92 empty empty empty 20 12 0 14 #696969 #e1e1e1 0;
#X obj 13 551 cnv 15 387 74 empty empty empty 20 12 0 14 #696969 #e1e1e1 0;
#X obj 244 454 cnv 15 262 92 empty empty empty 20 12 0 14 #696969 #e1e1e1 0;
#X text 40 60 Load Sample;
#X obj 944 551 scope~ 156 96 64 3 32 -1 1 0 0 0 0 225 225 225 25 25 25 105 105 105 0 empty;
#X obj 1114 551 scope~ 156 96 64 3 32 -1 1 0 0 0 0 225 225 225 25 25 25 105 105 105 0 empty;
#X floatatom 21 606 10 0 0 2 Transpose - - 10;
#X obj 12 59 bng 25 250 50 0 empty empty empty 17 7 0 10 #191919 #e1e1e1 #e1e1e1;
#X obj -252 -431 openpanel;
#X msg -252 -407 load \$1;
#X obj -252 -380 sfload sample;
#X obj 155 245 hsl 1110 30 0 1 0 0 empty empty Sample\ Start -63 14 0 10 #191919 #e1e1e1 #e1e1e1 0 1;
#X obj 155 278 hsl 1110 30 0 1 0 0 empty empty Sample\ End -58 14 0 10 #191919 #e1e1e1 #e1e1e1 0 1;
#X obj -426 -307 s total_samples;
#X obj -426 -348 unpack f f;
#X obj -426 -270 s sample_rate;
#X obj 12 629 keyboard 16 80 8 0 0 0 empty empty;
#X obj -365 275 s sample_start;
#X obj -365 312 s sample_end;
#X obj 513 -119 loadbang;
#X obj -104 91 s s_load_bang;
#X obj -251 -476 r s_load_bang;
#X obj -431 639 notein;
#X obj 12 141 messbox 136 24 25 25 25 225 225 225 0 12;
#X msg -419 91 set Samples: \$1;
#X obj 12 167 messbox 136 24 25 25 25 225 225 225 0 12;
#X obj 12 193 messbox 136 24 25 25 25 225 225 225 0 12;
#X obj 12 219 messbox 136 24 25 25 25 225 225 225 0 12;
#X msg -419 126 set Rate: \$2;
#X msg -417 161 set Channels: \$3;
#X msg -417 195 set Bits: \$4;
#X obj 49 1368 send~ output0;
#X obj 182 1359 send~ output1;
#X obj 978 814 receive~ output0;
#X obj 1178 814 receive~ output1;
#X text 28 15 SR9001 Sampler;
#X obj 25 471 hsl 128 17 0 1 0 0 empty empty Sample\ Rate\ Adjust -2 -8 0 10 #191919 #e1e1e1 #e1e1e1 0 1;
#X obj -168 517 *;
#X obj 66 487 r sample_rate;
#X obj -175 574 s sample_rate_reduction;
#X floatatom 164 471 7 0 0 1 Hz - - 10;
#X obj -431 668 pack f f;
#X obj -534 132 s sample_loaded;
#X obj -534 91 t b;
#X obj 1121 1049 dac~;
#X obj 1145 682 tgl 18 0 empty empty Mute -27 8 0 10 #191919 #e1e1e1 #e1e1e1 0 1;
#X obj 1090 658 hsl 128 17 0 2 0 0 empty empty Volume -43 9 0 10 #191919 #e1e1e1 #e1e1e1 0 1;
#X obj 1091 855 *~;
#X obj 1142 855 *~;
#X obj 776 723 loadbang;
#X obj 1170 767 t b;
#X msg 906 762 0;
#X msg -115 524 10512;
#X obj 195 509 bng 25 250 50 0 empty empty 10512\ Hz -9 -7 0 10 #191919 #e1e1e1 #e1e1e1;
#X obj 1030 970 send~ to_scope0;
#X obj 1231 979 send~ to_scope1;
#X obj 1484 656 receive~ to_scope0;
#X obj 1476 681 receive~ to_scope1;
#X obj 1461 570 hsl 128 17 0 1 0 0 empty empty empty -2 -8 0 10 #191919 #e1e1e1 #e1e1e1 0 1;
#X obj 1458 611 *;
#X floatatom 1662 639 7 0 0 0 - - - 12;
#X obj 1511 596 r total_samples;
#X obj -115 548 /;
#X obj 12 91 messbox 136 49 25 25 25 225 225 225 0 10;
#X msg -261 -60 set File: \$1;
#X obj -165 -174 list length;
#X obj -196 -109 list split;
#X obj -176 -251 file splitname /;
#X msg -52 524 1;
#X obj 554 378 loadbang;
#X obj 136 509 bng 25 250 50 0 empty empty Default\ Rate -15 -7 0 10 #191919 #e1e1e1 #e1e1e1;
#X text 1463 546 Zoom???;
#X obj 265 472 knob 50 0 5000 0 0 empty empty #191919 #696969 #E1E1E1 1 0 0 0 1 270 0 0 0 empty empty 0 12 6 -15 0 1 0 0;
#X obj 322 472 knob 50 0 5000 0 0 empty empty #191919 #696969 #E1E1E1 1 0 0 0 1 270 0 0 0 empty empty 0 12 6 -15 0 1 0 0;
#X obj 381 472 knob 50 0 1 0 0 empty empty #191919 #696969 #E1E1E1 1 0 0 0 1 270 0 0 0 empty empty 0 12 6 -15 0 1 0 0;
#X obj 443 472 knob 50 0 5000 0 0 empty empty #191919 #696969 #E1E1E1 1 0 0 0 1 270 0 0 0 empty empty 0 12 6 -15 0 1 0 0;
#X floatatom 265 528 5 0 0 0 - - - 12;
#X floatatom 322 528 5 0 0 0 - - - 12;
#X floatatom 381 528 5 0 0 0 - - - 12;
#X floatatom 443 528 5 0 0 0 - - - 12;
#X msg 381 430 1;
#X listbox 86 606 9 0 0 0 - - - 10;
#X obj 265 554 s a;
#X obj 322 554 s d;
#X obj 381 554 s s;
#X obj 501 528 s r;
#X obj 21 719 s midi_input;
#X obj 603 858 hsl 132 12 0 1 0 0 empty empty Playback\ Position -88 9 0 10 #191919 #e1e1e1 #e1e1e1 0 1;
#X obj 595 820 r playback_pos, f 16;
#X obj 1062 358 hradio 20 1 0 10 empty empty Slices 0 -8 0 10 #191919 #e1e1e1 #e1e1e1 0;
#X floatatom 1066 384 5 0 0 0 - - - 12;
#X obj 1359 181 text define slices;
#X obj 959 402 r sample_start;
#X obj 959 428 r sample_end;
#X obj 959 468 pack f f;
#X obj 1091 496 text set slices;
#X obj 1175 432 text get slices;
#X obj 1223 480 unpack;
#X obj 144 606 tgl 16 1 empty empty Enable/Disable\ Keyboard 21 9 0 10 #191919 #e1e1e1 #e1e1e1 1 1;
#X msg 1318 322 create;
#X obj 1365 355 param sample_select;
#X obj 1301 497 text set slices;
#X msg 1287 450 0 1, f 5;
#X obj 1300 383 until;
#X obj 1342 424 float 0;
#X obj 1353 464 + 1;
#X obj 1420 438 sel 8;
#X msg 1421 464 0;
#X obj 1237 330 bng 25 250 50 0 empty empty empty 17 7 0 10 #191919 #e1e1e1 #e1e1e1;
#X text 1152 329 Reset Slices;
#X obj -370 639 customkeymap;
#X obj -370 679 spigot;
#X obj 22 491 tgl 25 0 empty empty Interpolate\ (1x) 27 11 0 10 #191919 #e1e1e1 #e1e1e1 0 1;
#X obj 513 -35 s pd;
#X msg 513 -78 pluginmode;
#X msg 323 430 0;
#X obj 1201 518 s slice_start;
#X obj 1294 525 s slice_end;
#X obj -100 231 r slice_start;
#X obj -97 259 r slice_end;
#X obj -251 574 s s_interp;
#X floatatom 21 573 9 0 0 2 Pitch\ Offset - - 10;
#X obj -232 737 s pitch_offset;
#X text 757 1857 Add looping functionality, f 40;
#X text 755 1908 Add granular sampler grain.sampler~;
#X text 772 1959 Add crusher~ and/or quantizer~;
#X msg 1280 641 \; pd dsp \$1;
#X obj 1236 684 tgl 18 0 empty empty empty 17 7 0 10 #191919 #e1e1e1 #e1e1e1 0 1;
#X obj 1224 657 cnv 25 40 23 empty empty DSP 3 13 0 20 #d1d1d1 #7c7c7c 0;
#X obj 1290 591 loadbang;
#X msg 1290 617 1;
#X obj -176 -218 t l l;
#X obj -165 -142 - 1;
#X listbox -289 16 35 0 0 0 - - - 8;
#X obj 1084 1012 hip~ 5;
#X obj 1172 1017 hip~ 5;
#X obj 1091 790 float;
#X obj 1179 732 == 0;
#X obj 1129 730 sel 0;
#X msg 1114 761 0;
#X msg 443 433 45;
#X msg 268 430 1;
#X obj -359 229 r sample_loaded;
#X obj -168 454 t b;
#X obj 161 1166 downsample~;
#X obj 42 1166 downsample~;
#X obj 135 1026 r sample_rate_reduction;
#X msg 209 1092 interp \$1;
#X msg 76 1092 interp \$1;
#X obj -19 1052 r s_interp;
#X obj 232 1259 quantizer~;
#X obj 304 1195 hsl 128 17 0 0.1 0 0 empty empty empty -2 -8 0 10 #191919 #e1e1e1 #e1e1e1 0 1;
#X obj 87 1262 quantizer~;
#X floatatom 332 1234 5 0 0 0 - - - 12;
#X obj 289 597 tgl 25 0 empty empty Retrig/Legato -21 -8 0 10 #191919 #e1e1e1 #e1e1e1 0 1;
#X obj 953 687 hsl 128 17 0 1 0 0 empty empty Panning -2 -8 0 10 #191919 #e1e1e1 #e1e1e1 0 1;
#X floatatom 950 763 5 0 0 0 - - - 12;
#X floatatom 1037 731 5 0 0 0 - - - 12;
#X obj 950 730 expr 1 - $f1;
#X msg 677 766 0.5;
#X obj 1084 922 *~;
#X obj 1172 930 *~;
#X obj -335 390 r total_samples;
#X obj -230 390 r sample_rate;
#X msg -365 346 1;
#X msg 1287 346 11;
#X msg 1387 325 range 0 10;
#X msg 1118 330 0;
#X msg 535 430 0;
#X obj 83 922 voice;
#X obj 173 922 polyphonic;
#X msg 795 762 1;
#X text 761 2064 playback indicator array;
#X text 762 2118 sf2 loading;
#X text 762 2164 mono waveform loading;
#X obj 342 597 tgl 25 0 empty empty Mono/Poly -7 -8 0 10 #191919 #e1e1e1 #e1e1e1 0 1;
#X obj 83 782 spigot;
#X obj 122 725 == 0;
#X obj 173 782 spigot;
#X msg 501 430 0;
#X floatatom 455 1220 16 0 100 0 - - - 8;
#X msg 804 1164 16384;
#X msg 757 1164 8192;
#X obj 451 1353 abs_small_paul;
#X msg 711 1164 4096;
#X msg 858 1164 32768;
#X msg 661 1164 2048;
#X msg 617 1164 1024;
#X msg 914 1164 65536;
#X obj 757 1064 hradio 13 1 1 8 empty empty window\ size 0 -8 0 10 #fcfcfc #000000 #e0e0e0 5;
#X obj 804 1220 f;
#X obj 673 1315 nbx 5 14 -36 36 0 1 empty empty transpose -53 7 0 10 #fcfcfc #000000 #e1e1e1 0 256;
#X obj 748 1115 select 0 1 2 3 4 5 6 7;
#X msg 967 1164 131072;
#X obj 808 1275 nbx 5 13 0 131072 0 0 empty empty empty -7 7 0 10 #fcfcfc #000000 #000000 0 256;
#X obj 451 1407 *~ 2;
#X obj 488 1407 *~ 2;
#X text 772 2010 finish Implementing Paul's Extreme Music Stretching Algorithm;
#X obj 76 -216 adc~;
#X obj 150 -176 bng 25 250 50 0 empty empty empty 17 7 0 10 #e4e4e4 #4d4d4d #373737;
#X obj -14 -54 tabwriter~ 0-sample;
#X msg 12 -176 rec;
#X msg 36 -137 stop;
#X msg -668 -282 44100;
#X msg -565 -387 903168;
#X obj 182 -105 tabwrite~ 1-sample;
#X obj 162 -47 tabwriter~ 1-sample;
#X floatatom 661 1388 5 0 0 0 IDK\ LOL - - 12;
#X obj 454 1187 hsl 128 17 0 1 0 0 empty empty empty -2 -8 0 10 #191919 #e1e1e1 #e1e1e1 0 1;
#X obj 451 1293 *;
#X obj 477 1253 r total_samples;
#X obj -370 429 expr $f1 * $f2 / $f3 * 1000;
#X floatatom 12 251 10 0 0 0 - - - 10;
#X floatatom 12 284 10 0 0 0 - - - 10;
#X obj -668 -317 loadbang;
#X obj 443 575 tgl 25 0 empty empty ESS 3 -11 0 10 #191919 #e1e1e1 #e1e1e1 0 1;
#X obj 443 606 s paul_toggle;
#X obj 83 844 spigot;
#X obj 173 844 spigot;
#X obj 283 766 r paul_toggle;
#X obj 283 801 == 0;
#X msg 475 562 0;
#X obj 468 1134 r sample_start;
#X text 268 453 ADSR;
#X connect 12 0 25 0;
#X connect 13 0 14 0;
#X connect 13 0 72 0;
#X connect 14 0 15 0;
#X connect 15 0 33 0;
#X connect 15 0 34 0;
#X connect 15 0 35 0;
#X connect 15 0 48 0;
#X connect 15 0 29 0;
#X connect 15 0 19 0;
#X connect 16 0 217 0;
#X connect 17 0 218 0;
#X connect 19 0 18 0;
#X connect 19 1 20 0;
#X connect 21 0 183 0;
#X connect 21 0 181 0;
#X connect 21 0 91 0;
#X connect 21 0 86 0;
#X connect 24 0 119 0;
#X connect 26 0 13 0;
#X connect 27 0 46 0;
#X connect 27 1 46 1;
#X connect 29 0 28 0;
#X connect 33 0 30 0;
#X connect 34 0 31 0;
#X connect 35 0 32 0;
#X connect 38 0 52 0;
#X connect 39 0 53 0;
#X connect 41 0 42 0;
#X connect 42 0 45 0;
#X connect 42 0 44 0;
#X connect 43 0 42 1;
#X connect 43 0 67 1;
#X connect 43 0 148 0;
#X connect 46 0 21 0;
#X connect 48 0 47 0;
#X connect 50 0 142 0;
#X connect 51 0 141 0;
#X connect 52 0 165 0;
#X connect 53 0 166 0;
#X connect 54 0 176 0;
#X connect 54 0 56 0;
#X connect 54 0 164 0;
#X connect 55 0 51 0;
#X connect 56 0 50 0;
#X connect 57 0 67 0;
#X connect 57 0 44 0;
#X connect 58 0 57 0;
#X connect 61 0 9 0;
#X connect 62 0 10 0;
#X connect 63 0 64 0;
#X connect 64 0 65 0;
#X connect 66 0 64 1;
#X connect 67 0 41 0;
#X connect 69 0 68 0;
#X connect 69 0 138 0;
#X connect 70 0 137 0;
#X connect 71 1 69 0;
#X connect 72 0 136 0;
#X connect 73 0 41 0;
#X connect 74 0 85 0;
#X connect 74 0 145 0;
#X connect 74 0 146 0;
#X connect 74 0 120 0;
#X connect 74 0 169 0;
#X connect 74 0 226 0;
#X connect 74 0 184 0;
#X connect 74 0 173 0;
#X connect 75 0 73 0;
#X connect 77 0 81 0;
#X connect 78 0 82 0;
#X connect 79 0 83 0;
#X connect 80 0 84 0;
#X connect 81 0 87 0;
#X connect 82 0 88 0;
#X connect 83 0 89 0;
#X connect 84 0 90 0;
#X connect 85 0 79 0;
#X connect 93 0 92 0;
#X connect 94 0 95 0;
#X connect 94 0 105 0;
#X connect 95 0 100 1;
#X connect 95 0 101 0;
#X connect 97 0 99 0;
#X connect 98 0 99 1;
#X connect 99 0 100 0;
#X connect 101 0 102 0;
#X connect 102 0 121 0;
#X connect 102 1 122 0;
#X connect 103 0 116 1;
#X connect 104 0 105 0;
#X connect 105 0 94 0;
#X connect 107 0 106 0;
#X connect 108 0 107 0;
#X connect 108 0 109 0;
#X connect 109 0 106 1;
#X connect 109 0 110 0;
#X connect 109 0 111 0;
#X connect 110 0 109 1;
#X connect 111 0 112 0;
#X connect 112 0 109 1;
#X connect 113 0 172 0;
#X connect 113 0 170 0;
#X connect 115 0 116 0;
#X connect 115 1 11 0;
#X connect 116 0 21 0;
#X connect 117 0 125 0;
#X connect 119 0 118 0;
#X connect 120 0 78 0;
#X connect 123 0 16 0;
#X connect 124 0 17 0;
#X connect 126 0 127 0;
#X connect 132 0 131 0;
#X connect 134 0 135 0;
#X connect 135 0 132 0;
#X connect 136 0 71 0;
#X connect 136 1 70 0;
#X connect 137 0 71 1;
#X connect 139 0 49 0;
#X connect 140 0 49 1;
#X connect 141 0 52 1;
#X connect 141 0 53 1;
#X connect 142 0 143 0;
#X connect 143 0 144 0;
#X connect 143 1 55 0;
#X connect 144 0 141 0;
#X connect 145 0 80 0;
#X connect 146 0 77 0;
#X connect 147 0 75 0;
#X connect 147 0 16 0;
#X connect 147 0 17 0;
#X connect 148 0 42 0;
#X connect 149 0 155 0;
#X connect 150 0 157 0;
#X connect 151 0 149 1;
#X connect 151 0 150 1;
#X connect 152 0 149 0;
#X connect 153 0 150 0;
#X connect 154 0 153 0;
#X connect 154 0 152 0;
#X connect 155 0 37 0;
#X connect 156 0 155 1;
#X connect 156 0 157 1;
#X connect 156 0 158 0;
#X connect 157 0 36 0;
#X connect 159 0 174 1;
#X connect 159 0 175 1;
#X connect 160 0 163 0;
#X connect 160 0 162 0;
#X connect 161 0 165 1;
#X connect 162 0 166 1;
#X connect 163 0 161 0;
#X connect 164 0 160 0;
#X connect 165 0 139 0;
#X connect 165 0 59 0;
#X connect 166 0 140 0;
#X connect 166 0 60 0;
#X connect 167 0 216 1;
#X connect 168 0 216 2;
#X connect 169 0 17 0;
#X connect 170 0 108 0;
#X connect 171 0 105 0;
#X connect 172 0 94 0;
#X connect 173 0 159 0;
#X connect 174 0 150 0;
#X connect 174 1 149 0;
#X connect 175 0 150 0;
#X connect 175 1 149 0;
#X connect 176 0 51 0;
#X connect 180 0 183 1;
#X connect 180 0 182 0;
#X connect 181 0 222 0;
#X connect 182 0 181 1;
#X connect 183 0 223 0;
#X connect 184 0 180 0;
#X connect 185 0 214 0;
#X connect 186 0 195 0;
#X connect 187 0 195 0;
#X connect 188 0 200 0;
#X connect 188 1 201 0;
#X connect 188 2 212 0;
#X connect 189 0 195 0;
#X connect 190 0 195 0;
#X connect 191 0 195 0;
#X connect 192 0 195 0;
#X connect 193 0 195 0;
#X connect 194 0 197 0;
#X connect 195 0 188 1;
#X connect 195 0 199 0;
#X connect 196 0 188 2;
#X connect 197 0 192 0;
#X connect 197 1 191 0;
#X connect 197 2 189 0;
#X connect 197 3 187 0;
#X connect 197 4 186 0;
#X connect 197 5 190 0;
#X connect 197 6 193 0;
#X connect 197 7 198 0;
#X connect 198 0 195 0;
#X connect 200 0 150 0;
#X connect 201 0 149 0;
#X connect 203 0 205 0;
#X connect 203 0 210 0;
#X connect 203 1 211 0;
#X connect 204 0 210 0;
#X connect 206 0 205 0;
#X connect 206 0 211 0;
#X connect 207 0 205 0;
#X connect 207 0 211 0;
#X connect 208 0 20 0;
#X connect 209 0 18 0;
#X connect 213 0 185 0;
#X connect 214 0 188 0;
#X connect 215 0 214 1;
#X connect 217 0 22 0;
#X connect 218 0 23 0;
#X connect 219 0 208 0;
#X connect 220 0 221 0;
#X connect 222 0 174 0;
#X connect 223 0 175 0;
#X connect 224 0 225 0;
#X connect 225 0 223 1;
#X connect 225 0 222 1;
#X connect 226 0 220 0;
#X connect 227 0 213 0;
