#N canvas 100 100 1280 700 10;
#X obj 921 585 cnv 15 329 90 empty empty empty 20 12 0 14 #696969 #e1e1e1 0;
#X obj 1060 278 cnv 15 213 140 empty empty empty 20 12 0 14 #696969 #e1e1e1 0;
#X obj 12 381 cnv 15 368 92 empty empty empty 20 12 0 14 #696969 #e1e1e1 0;
#X obj 757 484 cnv 15 96 61 empty empty empty 20 12 0 14 #696969 #e1e1e1 0;
#X obj 451 447 cnv 15 272 92 empty empty empty 20 12 0 14 #696969 #e1e1e1 0;
#N canvas 0 0 450 250 (subpatch) 0;
#X array 0-cover 1 float 4;
#X coords 0 1 1 -1 907 102 1;
#X restore 149 24 graph;
#N canvas 0 0 450 250 (subpatch) 0;
#X array 1-cover 1 float 4;
#X coords 0 1 1 -1 907 102 1;
#X restore 149 141 graph;
#N canvas 0 0 450 250 (subpatch) 0;
#X array 1-sample 701751 float 2;
#X coords 0 -1 701751 1 907 101 1;
#X restore 149 141 graph;
#N canvas 0 0 450 250 (subpatch) 0;
#X array 0-sample 701751 float 2;
#X coords 0 -1 701751 1 907 102 1;
#X restore 149 24 graph;
#X text 40 60 Load Sample;
#X obj 1061 24 scope~ 200 100 64 3 32 -1 1 0 0 0 0 225 225 225 25 25 25 105 105 105 0 empty;
#X obj 1061 141 scope~ 200 100 64 3 32 -1 1 0 0 0 0 225 225 225 25 25 25 105 105 105 0 empty;
#X floatatom 21 569 10 0 0 2 Transpose - - 8;
#X obj 12 59 bng 25 250 50 0 empty empty empty 17 7 0 10 #191919 #e1e1e1 #e1e1e1;
#X obj -252 -431 openpanel;
#X msg -252 -407 load \$1;
#X obj -252 -380 sfload sample;
#X obj 152 245 hsl 901 30 0 1 0 1 empty empty Sample\ Start -63 14 0 10 #191919 #e1e1e1 #e1e1e1 53640 1;
#X obj 152 278 hsl 901 30 0 1 0 1 empty empty Sample\ End -58 14 0 10 #191919 #e1e1e1 #e1e1e1 90000 1;
#X obj -426 -307 s total_samples;
#X obj -426 -348 unpack f f;
#X obj -426 -270 s sample_rate;
#X obj 21 585 keyboard 16 80 8 0 0 0 empty empty;
#X obj -365 275 s sample_start;
#X obj -365 312 s sample_end;
#X obj 133 -35 array set 0-cover;
#X obj 389 -35 array size 0-cover;
#X obj 263 -35 array size 1-cover;
#X obj 12 -35 array set 1-cover;
#X msg 135 -75 1;
#X msg -16 -45 -1;
#X obj 147 2 cnv 15 97 20 empty empty empty 20 12 0 14 #232323 #e1e1e1 0;
#X obj 149 128 cnv 15 126 11 empty empty empty 20 12 0 14 #232323 #e1e1e1 0;
#X obj 2125 1180 pack f f f;
#X obj 2125 1223 route 1 2 3 4;
#X listbox 2095 1267 9 0 0 0 - - - 0;
#X listbox 2153 1267 9 0 0 0 - - - 0;
#X listbox 2263 1267 9 0 0 0 - - - 0;
#X listbox 2329 1267 9 0 0 0 - - - 0;
#X obj 67 -120 loadbang;
#X obj -104 91 s s_load_bang;
#X obj -251 -476 r s_load_bang;
#X obj -51 524 notein;
#X obj 12 141 messbox 136 24 25 25 25 225 225 225 0 12;
#X msg -419 91 set Samples: \$1;
#X obj 12 167 messbox 136 24 25 25 25 225 225 225 0 12;
#X obj 12 193 messbox 136 24 25 25 25 225 225 225 0 12;
#X obj 12 219 messbox 136 24 25 25 25 225 225 225 0 12;
#X msg -419 126 set Rate: \$2;
#X msg -417 161 set Channels: \$3;
#X msg -417 195 set Bits: \$4;
#X obj 13 2180 send~ output0;
#X obj 146 2171 send~ output1;
#X obj 971 788 receive~ output0;
#X obj 1173 788 receive~ output1;
#X text 28 15 SR9001 Sampler;
#X obj 2270 1338 unpack f f;
#X obj 2206 1338 stripnote;
#X obj 2212 1127 text define active_notes;
#X obj 2316 1376 moses 1;
#X obj 2319 1446 pack f f;
#X obj 2286 1560 text delete active_notes;
#X obj 2286 1520 text search active_notes;
#X obj 2240 1485 unpack f f;
#X obj 2240 1446 pack f f;
#X obj 1929 1331 unpack f f;
#X obj 1863 1331 stripnote;
#X obj 1975 1369 moses 1;
#X obj 1978 1439 pack f f;
#X obj 1945 1553 text delete active_notes;
#X obj 1945 1513 text search active_notes;
#X obj 1899 1478 unpack f f;
#X obj 1899 1439 pack f f;
#X obj 1978 1478 text insert active_notes;
#X obj 2319 1485 text insert active_notes;
#X obj 2380 1408 t b;
#X obj 2380 1446 text size active_notes;
#X obj 2039 1401 t b;
#X obj 2039 1439 text size active_notes;
#X obj 1745 1874 text get active_notes;
#X obj 1727 1763 text size active_notes;
#X obj 1727 1801 - 1;
#X obj 1727 1699 t b;
#X obj 1727 1831 sel -1;
#X obj 2140 1553 t b;
#X obj 2188 1553 t b;
#X floatatom 2251 1634 5 0 0 0 - - - 12;
#X obj 162 413 hsl 128 17 0 1 0 0 empty empty empty -2 -8 0 10 #191919 #e1e1e1 #e1e1e1 0 1;
#X obj 176 479 *;
#X obj 203 429 r sample_rate;
#X obj 176 507 s sample_rate_reduction;
#X floatatom 301 413 7 0 0 0 - - - 12;
#X text 165 389 Sample Rate Reduction;
#X obj 2095 1888 expr ($f1 == 0) && ($f2 == 0);
#X obj 2207 1429 t b;
#X obj 2095 1972 sel 1;
#X floatatom 1945 1595 5 0 0 0 - - - 12;
#X floatatom 2407 1631 5 0 0 0 - - - 12;
#X obj 2409 1692 sel 1;
#X obj 2016 1699 sel 1;
#X obj -51 553 pack f f;
#X obj -534 132 s sample_loaded;
#X obj -534 91 t b;
#X obj 1086 1086 dac~;
#X obj 1177 618 tgl 18 0 empty empty empty 17 7 0 10 #191919 #e1e1e1 #e1e1e1 0 1;
#X obj 1065 640 hsl 128 17 0 1 0 1 empty empty Volume -2 -8 0 10 #191919 #e1e1e1 #e1e1e1 9525 1;
#X obj 1086 829 *~;
#X obj 1137 829 *~;
#X obj 1047 552 loadbang;
#X obj 1156 737 t b;
#X msg 1177 591 0;
#X text 1145 617 Mute;
#X msg 37 441 10512;
#X obj 29 407 bng 25 250 50 0 empty empty empty 17 7 0 10 #191919 #e1e1e1 #e1e1e1;
#X text 24 380 10512 Hz;
#X floatatom 2072 1810 5 0 0 0 - - - 12;
#X floatatom 2202 1763 5 0 0 0 - - - 12;
#X obj 2160 1810 t b;
#X obj 897 1016 send~ to_scope0;
#X obj 1233 1030 send~ to_scope1;
#X obj 999 -44 receive~ to_scope0;
#X obj 1126 -44 receive~ to_scope1;
#X obj 1461 570 hsl 128 17 0 1 0 1 empty empty empty -2 -8 0 10 #191919 #e1e1e1 #e1e1e1 2946 1;
#X obj 1458 611 *;
#X floatatom 1662 639 7 0 0 0 - - - 12;
#X obj 1511 596 r total_samples;
#X obj 21 487 /;
#X obj 78 487 r sample_rate;
#X obj 12 91 messbox 136 49 25 25 25 225 225 225 0 10;
#X msg -261 -60 set File: \$1;
#X obj 2124 1127 poly 3 0;
#X obj -165 -174 list length;
#X obj -196 -109 list split;
#X obj -176 -251 file splitname /;
#X msg 140 390 1;
#X obj 554 378 loadbang;
#X obj 100 407 bng 25 250 50 0 empty empty empty 17 7 0 10 #191919 #e1e1e1 #e1e1e1;
#X text 1463 546 Zoom???;
#X obj 472 465 knob 50 0 5000 0 0 empty empty #191919 #696969 #E1E1E1 1 0 0 0 1 270 0 0 0 empty empty 0 12 6 -15 0 1 0 0;
#X obj 529 465 knob 50 0 5000 0 0 empty empty #191919 #696969 #E1E1E1 1 0 0 0 1 270 0 0 0 empty empty 0 12 6 -15 0 1 0 0;
#X obj 588 465 knob 50 0 1 0 0 empty empty #191919 #696969 #E1E1E1 1 0 0 0 1 270 0 0 0 empty empty 0 12 6 -15 0 1 0 0;
#X obj 650 465 knob 50 0 5000 0 0 empty empty #191919 #696969 #E1E1E1 1 0 0 0 1 270 0 0 0 empty empty 0 12 6 -15 0 1 0 0;
#X floatatom 472 521 5 0 0 0 - - - 12;
#X floatatom 529 521 5 0 0 0 - - - 12;
#X floatatom 588 521 5 0 0 0 - - - 12;
#X floatatom 650 521 5 0 0 0 - - - 12;
#X text 475 446 ADSR;
#X msg 588 423 1;
#X listbox 83 567 9 0 0 0 - - - 0;
#X obj 472 547 s a;
#X obj 529 547 s d;
#X obj 588 547 s s;
#X obj 650 547 s r;
#X obj 21 675 s midi_input;
#X obj 2124 1074 r midi_input;
#X obj 228 1456 sig2float~;
#X obj 244 1375 vline~;
#X obj 89 1418 +~;
#X obj 289 917 -;
#X obj 633 1120 mtof;
#X obj 373 1219 *;
#X obj 228 1525 /;
#X floatatom 141 1490 11 0 0 0 - - - 12;
#X obj 568 1155 expr 130.813 / $f1;
#X obj 633 859 stripnote;
#X obj 239 1490 r total_samples;
#X obj 541 891 t b;
#X obj 691 1195 unpack f f;
#X obj 89 974 r sample_start;
#X obj 343 802 r sample_start;
#X obj 227 809 r sample_end;
#X obj 691 789 mono;
#X obj 691 819 pack f f;
#X obj 292 1187 abs;
#X obj 228 1570 s playback_pos;
#X obj 152 312 hsl 901 20 0 1 0 0 empty empty Playback\ Position -88 9 0 10 #191919 #e1e1e1 #e1e1e1 0 1;
#X obj -372 339 r playback_pos;
#X obj 1107 362 hradio 20 1 0 8 empty empty Slices 0 -8 0 10 #191919 #e1e1e1 #e1e1e1 0;
#X floatatom 1107 389 5 0 0 0 - - - 12;
#X obj 691 717 r midi_input;
#X obj -1 1699 tabread4~ 0-sample;
#X obj 156 1699 tabread4~ 1-sample;
#X obj 1274 24 text define slices;
#X obj 999 399 r sample_start;
#X obj 999 425 r sample_end;
#X obj 999 465 pack f f;
#X obj 1091 496 text set slices;
#X obj 1175 432 text get slices;
#X obj 1209 507 unpack;
#X obj 142 565 tgl 18 1 empty empty empty 17 7 0 10 #191919 #e1e1e1 #e1e1e1 1 1;
#X msg 1105 264 create;
#X msg 1174 267 range 0 8;
#X obj 1152 297 param sample_select;
#X obj 1287 524 text set slices;
#X msg 1287 450 0 1, f 5;
#X obj 1300 383 until;
#X obj 1342 424 float 0;
#X obj 1353 464 + 1;
#X msg 1299 324 9;
#X obj 1420 438 sel 8;
#X msg 1421 464 0;
#X obj 1081 312 bng 25 250 50 0 empty empty empty 17 7 0 10 #191919 #e1e1e1 #e1e1e1;
#X text 1060 294 Reset Slices;
#X obj 21 520 customkeymap;
#X obj 21 550 spigot;
#X text 159 564 Enable/Disable Keyboard Input;
#X obj 336 926 r sample_rate;
#X obj 296 960 /;
#X obj 157 1750 *~;
#X obj 24 1767 *~;
#X floatatom 737 1399 5 0 0 0 - - - 12;
#X obj 238 1259 pack f f;
#X obj 159 433 tgl 25 0 empty empty empty 17 7 0 10 #191919 #e1e1e1 #e1e1e1 0 1;
#X obj 513 -35 s pd;
#X msg 513 -69 pluginmode;
#X text 91 380 Default Hz;
#X msg 530 423 0;
#X obj 1187 545 s slice_start;
#X obj 1280 552 s slice_end;
#X obj -100 231 r slice_start;
#X obj -97 259 r slice_end;
#X text 356 412 Hz;
#X text 76 432 Interpolation;
#X obj 196 439 s s_interp;
#X floatatom 769 513 9 0 0 0 - - - 10;
#X text 769 491 Pitch Offset;
#X obj 767 547 s pitch_offset;
#X obj 553 1034 r pitch_offset;
#X obj 633 1075 +;
#X obj 553 1075 t b;
#X text 722 1681 Add looping functionality, f 40;
#X text 720 1732 Add granular sampler grain.sampler~;
#X text 737 1783 Add crusher~ and/or quantizer~;
#X text 737 1834 Implement Paul's Extreme Music Stretching Algorithm;
#X msg 1280 641 \; pd dsp \$1;
#X obj 1202 591 tgl 39 0 empty empty empty 17 7 0 10 #191919 #e1e1e1 #e1e1e1 0 1;
#X obj 1202 632 cnv 25 40 25 empty empty DSP 3 13 0 20 #d1d1d1 #7c7c7c 0;
#X obj 1290 591 loadbang;
#X msg 1290 617 1;
#X obj -176 -218 t l l;
#X obj -165 -142 - 1;
#X listbox -289 16 26 0 0 0 - - - 8;
#X obj 737 1432 change;
#X obj 737 1471 sel 0;
#X obj 1049 1049 hip~ 5;
#X obj 1137 1054 hip~ 5;
#X text 742 1880 panning left/right;
#X obj 1086 764 float;
#X obj 1161 687 == 0;
#X obj 1117 696 sel 0;
#X msg 1102 727 0;
#X msg 324 1346 0;
#X obj 800 1228 r d;
#X obj 828 1228 r s;
#X obj 737 1362 sig2float~;
#X obj 863 1228 r r;
#X obj 770 1228 r a;
#X msg 650 426 45;
#X msg 475 423 1;
#X text 722 1629 Add legato switch;
#X obj -174 376 r sample_loaded;
#X obj 270 476 t b;
#X obj 125 1978 downsample~;
#X obj 6 1978 downsample~;
#X obj 99 1838 r sample_rate_reduction;
#X msg 173 1904 interp \$1;
#X msg 40 1904 interp \$1;
#X obj -55 1864 r s_interp;
#X obj 196 2071 quantizer~;
#X obj 268 2007 hsl 128 17 0 0.1 0 0 empty empty empty -2 -8 0 10 #191919 #e1e1e1 #e1e1e1 0 1;
#X obj 51 2074 quantizer~;
#X floatatom 296 2046 5 0 0 0 - - - 12;
#X msg 1066 591 0.75;
#X obj 361 556 tgl 25 0 empty empty Mono/Legato -20 -10 0 10 #191919 #e1e1e1 #e1e1e1 0 1;
#X floatatom 664 349 13 0 0 0 - - - 16;
#X obj 196 1175 float;
#X obj 930 640 hsl 128 17 0 1 0 0 empty empty Panning -2 -8 0 10 #191919 #e1e1e1 #e1e1e1 0 1;
#X floatatom 819 772 5 0 0 0 - - - 12;
#X floatatom 901 772 5 0 0 0 - - - 12;
#X obj 819 746 expr 1 - $f1;
#X msg 948 595 0.5;
#X obj 1049 959 *~;
#X obj 1137 967 *~;
#X obj 737 1279 adsr~ -rel;
#X obj -488 413 r total_samples;
#X obj -520 442 *;
#X obj -434 453 r sample_rate;
#X obj -520 475 /;
#X obj -508 527 * 1000;
#X obj 353 876 *;
#X obj 364 835 r total_samples;
#X obj 93 1055 *;
#X obj 145 1015 r total_samples;
#X obj 230 884 *;
#X obj 241 843 r total_samples;
#X obj 413 1071 -;
#X obj 406 970 r sample_end;
#X obj 412 1040 *;
#X obj 423 999 r total_samples;
#X floatatom 407 1112 11 0 0 0 - - - 10;
#X obj 292 1041 * 1000;
#X obj 490 1106 r sample_rate;
#X obj 479 1133 /;
#X obj 429 1155 * 1000;
#X floatatom 429 1181 5 0 0 0 - - - 12;
#X obj 267 1220 t b;
#X obj 321 1159 spigot;
#X obj 319 1078 == 0;
#X obj 292 1105 spigot;
#X obj 205 1299 spigot;
#X obj 278 1295 spigot;
#X msg 175 1325 0 \, \$1 \$2;
#X msg 267 1324 \$1 \$2;
#X obj 365 1271 *;
#X connect 13 0 40 0;
#X connect 14 0 15 0;
#X connect 14 0 133 0;
#X connect 15 0 16 0;
#X connect 16 0 48 0;
#X connect 16 0 49 0;
#X connect 16 0 50 0;
#X connect 16 0 102 0;
#X connect 16 0 44 0;
#X connect 16 0 20 0;
#X connect 17 0 285 0;
#X connect 17 0 23 0;
#X connect 18 0 24 0;
#X connect 20 0 19 0;
#X connect 20 1 21 0;
#X connect 22 0 153 0;
#X connect 22 0 148 0;
#X connect 29 0 25 0;
#X connect 29 0 26 0;
#X connect 29 0 27 0;
#X connect 30 0 28 0;
#X connect 33 0 34 0;
#X connect 34 0 35 0;
#X connect 34 1 36 0;
#X connect 34 2 37 0;
#X connect 34 3 38 0;
#X connect 35 0 66 0;
#X connect 35 0 65 0;
#X connect 36 0 56 0;
#X connect 36 0 57 0;
#X connect 39 0 29 0;
#X connect 39 0 30 0;
#X connect 39 0 214 0;
#X connect 41 0 14 0;
#X connect 42 0 100 0;
#X connect 42 1 100 1;
#X connect 44 0 43 0;
#X connect 48 0 45 0;
#X connect 49 0 46 0;
#X connect 50 0 47 0;
#X connect 53 0 106 0;
#X connect 54 0 107 0;
#X connect 56 0 64 1;
#X connect 56 1 59 0;
#X connect 56 1 94 0;
#X connect 56 1 116 0;
#X connect 57 0 60 0;
#X connect 59 0 64 0;
#X connect 59 1 60 1;
#X connect 59 1 75 0;
#X connect 60 0 74 0;
#X connect 60 0 82 0;
#X connect 62 0 61 0;
#X connect 62 0 97 0;
#X connect 62 0 85 0;
#X connect 63 1 62 0;
#X connect 63 1 86 0;
#X connect 64 0 63 0;
#X connect 65 0 72 1;
#X connect 65 1 67 0;
#X connect 65 1 115 0;
#X connect 66 0 68 0;
#X connect 67 0 72 0;
#X connect 67 1 68 1;
#X connect 67 1 77 0;
#X connect 68 0 73 0;
#X connect 68 0 82 0;
#X connect 70 0 69 0;
#X connect 70 0 96 0;
#X connect 70 0 84 0;
#X connect 71 1 70 0;
#X connect 72 0 71 0;
#X connect 75 0 76 0;
#X connect 76 0 74 1;
#X connect 77 0 78 0;
#X connect 78 0 73 1;
#X connect 80 0 81 0;
#X connect 81 0 83 0;
#X connect 82 0 80 0;
#X connect 83 1 79 0;
#X connect 87 0 88 0;
#X connect 88 0 91 0;
#X connect 88 0 90 0;
#X connect 89 0 88 1;
#X connect 89 0 261 0;
#X connect 93 0 95 0;
#X connect 94 0 115 0;
#X connect 96 0 99 0;
#X connect 97 0 98 0;
#X connect 98 0 80 0;
#X connect 99 0 80 0;
#X connect 100 0 22 0;
#X connect 102 0 101 0;
#X connect 104 0 248 0;
#X connect 105 0 247 0;
#X connect 106 0 281 0;
#X connect 107 0 282 0;
#X connect 108 0 272 0;
#X connect 108 0 110 0;
#X connect 108 0 280 0;
#X connect 109 0 105 0;
#X connect 110 0 104 0;
#X connect 112 0 126 0;
#X connect 112 0 90 0;
#X connect 113 0 112 0;
#X connect 115 0 93 0;
#X connect 116 0 93 1;
#X connect 116 0 117 0;
#X connect 117 0 93 0;
#X connect 120 0 10 0;
#X connect 121 0 11 0;
#X connect 122 0 123 0;
#X connect 123 0 124 0;
#X connect 125 0 123 1;
#X connect 126 0 87 0;
#X connect 127 0 126 1;
#X connect 129 0 128 0;
#X connect 129 0 241 0;
#X connect 130 0 33 0;
#X connect 130 1 33 1;
#X connect 130 2 33 2;
#X connect 131 0 240 0;
#X connect 132 1 129 0;
#X connect 133 0 239 0;
#X connect 134 0 87 0;
#X connect 135 0 147 0;
#X connect 135 0 257 0;
#X connect 135 0 258 0;
#X connect 135 0 216 0;
#X connect 136 0 134 0;
#X connect 138 0 142 0;
#X connect 139 0 143 0;
#X connect 140 0 144 0;
#X connect 141 0 145 0;
#X connect 142 0 149 0;
#X connect 143 0 150 0;
#X connect 144 0 151 0;
#X connect 145 0 152 0;
#X connect 147 0 140 0;
#X connect 155 0 161 0;
#X connect 155 0 162 0;
#X connect 155 0 295 1;
#X connect 156 0 157 0;
#X connect 157 0 155 0;
#X connect 157 0 181 0;
#X connect 157 0 180 0;
#X connect 158 0 211 0;
#X connect 158 0 207 0;
#X connect 159 0 163 0;
#X connect 160 0 306 0;
#X connect 161 0 174 0;
#X connect 163 0 160 1;
#X connect 163 0 313 1;
#X connect 164 0 228 0;
#X connect 164 0 166 0;
#X connect 165 0 161 1;
#X connect 166 0 289 0;
#X connect 166 0 293 0;
#X connect 166 0 291 0;
#X connect 166 0 297 0;
#X connect 166 0 160 0;
#X connect 167 1 283 0;
#X connect 168 0 291 0;
#X connect 169 0 289 0;
#X connect 170 0 293 0;
#X connect 171 0 172 0;
#X connect 171 1 172 1;
#X connect 172 0 167 0;
#X connect 172 0 164 0;
#X connect 173 0 211 1;
#X connect 173 0 305 0;
#X connect 176 0 175 0;
#X connect 177 0 178 0;
#X connect 177 0 192 0;
#X connect 178 0 186 1;
#X connect 178 0 187 0;
#X connect 179 0 171 0;
#X connect 180 0 209 0;
#X connect 181 0 208 0;
#X connect 183 0 185 0;
#X connect 184 0 185 1;
#X connect 185 0 186 0;
#X connect 187 0 188 0;
#X connect 188 0 217 0;
#X connect 188 1 218 0;
#X connect 189 0 204 1;
#X connect 190 0 192 0;
#X connect 191 0 192 0;
#X connect 192 0 177 0;
#X connect 194 0 193 0;
#X connect 195 0 194 0;
#X connect 195 0 196 0;
#X connect 196 0 193 1;
#X connect 196 0 197 0;
#X connect 196 0 199 0;
#X connect 197 0 196 1;
#X connect 198 0 195 0;
#X connect 199 0 200 0;
#X connect 200 0 196 1;
#X connect 201 0 198 0;
#X connect 203 0 204 0;
#X connect 203 1 12 0;
#X connect 204 0 22 0;
#X connect 206 0 207 1;
#X connect 207 0 300 0;
#X connect 208 0 262 0;
#X connect 209 0 263 0;
#X connect 210 0 242 0;
#X connect 211 0 309 0;
#X connect 211 0 310 0;
#X connect 212 0 223 0;
#X connect 216 0 139 0;
#X connect 219 0 17 0;
#X connect 220 0 18 0;
#X connect 224 0 226 0;
#X connect 227 0 228 1;
#X connect 227 0 229 0;
#X connect 228 0 159 0;
#X connect 229 0 228 0;
#X connect 235 0 234 0;
#X connect 237 0 238 0;
#X connect 238 0 235 0;
#X connect 239 0 132 0;
#X connect 239 1 131 0;
#X connect 240 0 132 1;
#X connect 242 0 243 0;
#X connect 243 0 251 0;
#X connect 244 0 103 0;
#X connect 245 0 103 1;
#X connect 247 0 106 1;
#X connect 247 0 107 1;
#X connect 248 0 249 0;
#X connect 249 0 250 0;
#X connect 249 1 109 0;
#X connect 250 0 247 0;
#X connect 251 0 156 0;
#X connect 252 0 283 3;
#X connect 253 0 283 4;
#X connect 254 0 210 0;
#X connect 255 0 283 5;
#X connect 256 0 283 2;
#X connect 257 0 141 0;
#X connect 258 0 138 0;
#X connect 260 0 136 0;
#X connect 260 0 18 0;
#X connect 260 0 17 0;
#X connect 261 0 88 0;
#X connect 262 0 268 0;
#X connect 263 0 270 0;
#X connect 264 0 262 1;
#X connect 264 0 263 1;
#X connect 265 0 262 0;
#X connect 266 0 263 0;
#X connect 267 0 266 0;
#X connect 267 0 265 0;
#X connect 268 0 52 0;
#X connect 269 0 268 1;
#X connect 269 0 270 1;
#X connect 269 0 271 0;
#X connect 270 0 51 0;
#X connect 272 0 105 0;
#X connect 273 0 306 1;
#X connect 273 0 307 0;
#X connect 273 0 310 1;
#X connect 276 0 279 0;
#X connect 276 0 278 0;
#X connect 277 0 281 1;
#X connect 278 0 282 1;
#X connect 279 0 277 0;
#X connect 280 0 276 0;
#X connect 281 0 244 0;
#X connect 281 0 118 0;
#X connect 282 0 245 0;
#X connect 282 0 119 0;
#X connect 283 0 208 1;
#X connect 283 0 254 0;
#X connect 283 0 209 1;
#X connect 284 0 285 1;
#X connect 285 0 287 0;
#X connect 286 0 287 1;
#X connect 287 0 288 0;
#X connect 288 0 274 0;
#X connect 289 0 158 1;
#X connect 290 0 289 1;
#X connect 291 0 157 1;
#X connect 292 0 291 1;
#X connect 293 0 158 0;
#X connect 294 0 293 1;
#X connect 295 0 299 0;
#X connect 296 0 297 0;
#X connect 297 0 295 0;
#X connect 298 0 297 1;
#X connect 299 0 302 0;
#X connect 300 0 308 0;
#X connect 301 0 302 1;
#X connect 302 0 303 0;
#X connect 303 0 304 0;
#X connect 304 0 160 0;
#X connect 305 0 211 0;
#X connect 306 0 173 0;
#X connect 307 0 308 1;
#X connect 307 0 309 1;
#X connect 308 0 313 0;
#X connect 309 0 311 0;
#X connect 310 0 312 0;
#X connect 311 0 156 0;
#X connect 312 0 156 0;
#X connect 313 0 173 0;
