#N canvas 0 50 450 300 10;
#X obj 165 780 sig2float~;
#X obj 181 699 vline~;
#X obj 26 742 +~;
#X obj 226 241 -;
#X obj 570 444 mtof;
#X obj 310 543 *;
#X obj 165 849 /;
#X floatatom 78 814 11 0 0 0 - - - 12;
#X obj 505 479 expr 130.813 / $f1;
#X obj 570 183 stripnote;
#X obj 176 814 r total_samples;
#X obj 478 215 t b;
#X obj 628 519 unpack f f;
#X obj 18 188 r sample_start;
#X obj 285 14 r sample_start;
#X obj 162 13 r sample_end;
#X obj 628 113 mono;
#X obj 628 143 pack f f;
#X obj 229 511 abs;
#X obj 165 894 s playback_pos;
#X obj 273 250 r sample_rate;
#X obj 233 284 /;
#X floatatom 674 723 5 0 0 0 - - - 12;
#X obj 175 583 pack f f;
#X obj 490 358 r pitch_offset;
#X obj 570 399 +;
#X obj 490 399 t b;
#X obj 674 756 change;
#X obj 674 795 sel 0;
#X msg 261 670 0;
#X obj 737 552 r d;
#X obj 765 552 r s;
#X obj 674 686 sig2float~;
#X obj 800 552 r r;
#X obj 707 552 r a;
#X obj 290 200 *;
#X obj 301 159 r total_samples;
#X obj 30 379 *;
#X obj 82 339 r total_samples;
#X obj 167 208 *;
#X obj 178 167 r total_samples;
#X obj 350 395 -;
#X obj 343 294 r sample_end;
#X obj 349 364 *;
#X obj 360 323 r total_samples;
#X floatatom 344 436 11 0 0 0 - - - 10;
#X obj 229 365 * 1000;
#X obj 427 430 r sample_rate;
#X obj 416 457 /;
#X obj 366 479 * 1000;
#X floatatom 366 505 5 0 0 0 - - - 12;
#X obj 204 544 t b;
#X obj 258 483 spigot;
#X obj 256 402 == 0;
#X obj 229 429 spigot;
#X obj 142 623 spigot;
#X obj 215 619 spigot;
#X msg 112 649 0 \, \$1 \$2;
#X msg 204 648 \$1 \$2;
#X obj 302 595 *;
#X obj 286 88 float;
#X obj 166 103 float;
#X obj 35 303 float;
#X obj 794 35 inlet;
#X obj 22 1054 tabread4~ 0-sample;
#X obj 179 1054 tabread4~ 1-sample;
#X obj 180 1105 *~;
#X obj 47 1122 *~;
#X obj 50 1235 outlet~;
#X obj 181 1236 outlet~;
#X obj 628 29 inlet;
#X obj 674 603 adsr~;
#X connect 0 0 6 0;
#X connect 0 0 7 0;
#X connect 0 0 41 1;
#X connect 1 0 2 0;
#X connect 2 0 0 0;
#X connect 2 0 64 0;
#X connect 2 0 65 0;
#X connect 3 0 23 0;
#X connect 3 0 21 0;
#X connect 4 0 8 0;
#X connect 5 0 52 0;
#X connect 6 0 19 0;
#X connect 8 0 5 1;
#X connect 8 0 59 1;
#X connect 9 0 25 0;
#X connect 9 0 11 0;
#X connect 10 0 6 1;
#X connect 11 0 43 0;
#X connect 11 0 5 0;
#X connect 11 0 60 0;
#X connect 11 0 61 0;
#X connect 11 0 62 0;
#X connect 12 1 71 0;
#X connect 13 0 62 1;
#X connect 14 0 60 1;
#X connect 15 0 61 1;
#X connect 16 0 17 0;
#X connect 16 1 17 1;
#X connect 17 0 9 0;
#X connect 17 0 12 0;
#X connect 18 0 23 1;
#X connect 18 0 51 0;
#X connect 20 0 21 1;
#X connect 21 0 46 0;
#X connect 22 0 27 0;
#X connect 23 0 55 0;
#X connect 23 0 56 0;
#X connect 24 0 25 1;
#X connect 24 0 26 0;
#X connect 25 0 4 0;
#X connect 26 0 25 0;
#X connect 27 0 28 0;
#X connect 28 0 29 0;
#X connect 29 0 1 0;
#X connect 30 0 71 3;
#X connect 31 0 71 4;
#X connect 32 0 22 0;
#X connect 33 0 71 5;
#X connect 34 0 71 2;
#X connect 35 0 3 1;
#X connect 36 0 35 1;
#X connect 37 0 2 1;
#X connect 38 0 37 1;
#X connect 39 0 3 0;
#X connect 40 0 39 1;
#X connect 41 0 45 0;
#X connect 42 0 43 0;
#X connect 43 0 41 0;
#X connect 44 0 43 1;
#X connect 45 0 48 0;
#X connect 46 0 54 0;
#X connect 47 0 48 1;
#X connect 48 0 49 0;
#X connect 49 0 50 0;
#X connect 50 0 5 0;
#X connect 51 0 23 0;
#X connect 52 0 18 0;
#X connect 53 0 54 1;
#X connect 53 0 55 1;
#X connect 54 0 59 0;
#X connect 55 0 57 0;
#X connect 56 0 58 0;
#X connect 57 0 1 0;
#X connect 58 0 1 0;
#X connect 59 0 18 0;
#X connect 60 0 35 0;
#X connect 61 0 39 0;
#X connect 62 0 37 0;
#X connect 63 0 53 0;
#X connect 63 0 52 1;
#X connect 63 0 56 1;
#X connect 64 0 67 0;
#X connect 65 0 66 0;
#X connect 66 0 69 0;
#X connect 67 0 68 0;
#X connect 70 0 16 0;
#X connect 71 0 32 0;
#X connect 71 0 67 1;
#X connect 71 0 66 1;
